<svg width="31" height="31" viewBox="0 0 31 31" fill="none" xmlns="http://www.w3.org/2000/svg">
<path d="M14.5245 18.9837V10.622C12.5959 10.2821 10.6673 10.1171 8.73877 10.8645V19.2237C10.6673 18.4763 12.5959 18.6437 14.5245 18.9837Z" fill="#374375"/>
<path d="M20.9283 19.2261V10.8644C18.9997 10.117 17.0711 10.282 15.1426 10.612V18.9711C17.0711 18.6437 18.9997 18.4762 20.9283 19.2261Z" fill="#374375"/>
<path d="M21.5345 11.8569V20.0136C20.0927 19.3512 18.8866 19.1937 17.9162 19.1862C17.0039 19.1812 15.4304 19.4037 14.8335 19.5362C14.1447 19.3962 12.5774 19.1712 11.7508 19.1862C10.7406 19.2037 9.83452 19.2837 8.13248 20.0136V11.8569H7.3335V20.3336H22.3335V11.8569H21.5345Z" fill="#374375"/>
<path fill-rule="evenodd" clip-rule="evenodd" d="M3.99999 8.66667C3.99999 6.08934 6.08933 4 8.66666 4H22C24.5773 4 26.6667 6.08934 26.6667 8.66667V22C26.6667 24.5773 24.5773 26.6667 22 26.6667H8.66666C6.08933 26.6667 3.99999 24.5773 3.99999 22V8.66667ZM8.66666 0C3.88019 0 -5.00679e-06 3.8802 -5.00679e-06 8.66667V22C-5.00679e-06 26.7865 3.88019 30.6667 8.66666 30.6667H22C26.7865 30.6667 30.6667 26.7865 30.6667 22V8.66667C30.6667 3.8802 26.7865 0 22 0H8.66666ZM22.6667 6C21.5621 6 20.6667 6.89543 20.6667 8C20.6667 9.10457 21.5621 10 22.6667 10H22.68C23.7846 10 24.68 9.10457 24.68 8C24.68 6.89543 23.7846 6 22.68 6H22.6667Z" fill="#374375"/>
</svg>
