<svg width="36" height="29" viewBox="0 0 36 29" fill="none" xmlns="http://www.w3.org/2000/svg">
<path d="M33.4318 8.48935C33.2862 7.395 33.2657 5.51012 34.2821 4.87721C34.3003 4.86561 34.3138 4.84885 34.3297 4.83445C35.1608 4.56865 35.7359 4.19563 35.2844 3.69369L23.0256 4.33186e-07L3.1759 2.75974C3.1759 2.75974 0.902855 3.08462 1.10591 6.61608C1.21614 8.53813 1.81897 9.48207 2.34616 9.94663L0.717312 10.4375C0.265217 10.9395 0.84022 11.3126 1.67135 11.578C1.68715 11.5928 1.70047 11.6094 1.71895 11.621C2.73476 12.2545 2.71521 14.1391 2.5691 15.2337C-1.08022 16.2699 0.229763 16.6076 0.229763 16.6076L1.03028 16.8013C0.467198 17.3101 -0.0920113 18.275 0.0127399 20.105C0.215903 23.6358 2.08294 23.8795 2.08294 23.8795L15.0725 28.1016L34.6787 23.3526C34.6787 23.3526 35.9891 23.0144 32.3388 21.9781C32.1921 20.8852 32.1717 19.0008 33.1898 18.3657C33.2085 18.3544 33.2222 18.3374 33.2373 18.3232C34.0685 18.0574 34.643 17.6847 34.1915 17.1827L33.3393 16.9254C33.9076 16.5827 34.7613 15.687 34.8951 13.3603C34.9874 11.76 34.5699 10.8227 34.0866 10.2709L35.771 9.86326C35.7711 9.8639 37.0815 9.52569 33.4318 8.48935ZM17.0324 8.44412L20.3294 7.76652L31.4715 5.47682L33.1315 5.13538C32.6011 6.10618 32.6233 7.43475 32.7111 8.28866C32.7303 8.48183 32.7525 8.65824 32.7739 8.79233L30.957 9.2441L16.8938 12.7426L17.0324 8.44412ZM2.86971 11.8803L4.5295 12.2217L15.2299 14.4214L16.1647 14.6128L18.9681 15.189L19.1063 19.4876L4.65241 15.8916L3.22747 15.5374C3.24842 15.4031 3.27055 15.2269 3.29064 15.0332C3.37788 14.18 3.40055 12.8511 2.86971 11.8803ZM2.22487 6.44612C2.20478 5.50679 2.37216 4.82747 2.71048 4.48217C2.92579 4.2617 3.17988 4.21583 3.35414 4.21583C3.44621 4.21583 3.5125 4.22861 3.51701 4.22861L12.0698 7.01693L16.3368 8.40813L16.1968 12.7367L4.22599 9.38054L3.59426 9.20359C3.57105 9.19704 3.53958 9.19253 3.51529 9.19145C3.46598 9.18791 2.28245 9.07897 2.22487 6.44612ZM15.1035 26.2262L2.5012 22.6931C2.47788 22.6863 2.44673 22.6818 2.42245 22.6806C2.37227 22.6773 1.18821 22.5684 1.13094 19.9362C1.11053 18.9957 1.27878 18.317 1.61645 17.9714C1.83229 17.751 2.08649 17.7051 2.26043 17.7051C2.35272 17.7051 2.41879 17.7174 2.42363 17.7174L15.2426 21.8976L15.1035 26.2262ZM31.6171 21.7776C31.6369 21.9714 31.6591 22.1475 31.6806 22.2818L15.8001 26.2324L15.9389 21.9338L19.334 21.2358L19.8354 21.3571L21.7147 20.7463L30.3775 18.9662L32.0381 18.6245C31.5072 19.5952 31.5292 20.9243 31.6171 21.7776ZM32.4918 15.9357C32.4629 15.9364 32.434 15.9402 32.4068 15.9488L31.2091 16.2841L19.8049 19.4819L19.6654 15.1534L23.407 13.933L32.4669 10.9783C32.4681 10.9778 32.9435 10.8722 33.2924 11.2271C33.6302 11.5724 33.7978 12.2517 33.778 13.191C33.719 15.823 32.5349 15.9324 32.4918 15.9357Z" fill="#374375"/>
</svg>
