<svg width="97" height="17" viewBox="0 0 97 17" fill="none" xmlns="http://www.w3.org/2000/svg">
<path d="M5.78 16L4.52 11.5L3.54 4.54H0.9V2.08H5.16L6.38 6.52L7.66 13.52H10.24V16H5.78ZM0.9 16V5.46H2.86L3.44 10.64L3.68 16H0.9ZM10.24 12.6H8.28L7.68 8.2L7.46 2.08H10.24V12.6ZM12.0328 16V2.08H15.0328V16H12.0328ZM16.8375 16V8.52H19.8975L21.0575 5.52L22.5575 2.08H25.6975L19.7775 14.18V16H16.8375ZM22.9375 16L21.7775 13.06L23.5175 9.46L25.8775 16H22.9375ZM16.8375 7.6V2.08H19.8975L19.8575 5.52L19.3775 7.6H16.8375ZM29.8773 16.16C28.6307 16.0867 27.7273 15.7633 27.1673 15.19C26.6073 14.6167 26.3107 13.72 26.2773 12.5C26.2573 11.9 26.244 11.2867 26.2373 10.66C26.2307 10.0333 26.2273 9.41667 26.2273 8.81C26.2273 8.19667 26.2307 7.61333 26.2373 7.06C26.2507 6.50667 26.264 6.00667 26.2773 5.56C26.3107 4.34667 26.6073 3.45667 27.1673 2.89C27.7273 2.31667 28.6307 1.99333 29.8773 1.92V4.27C29.6507 4.33 29.4773 4.42333 29.3573 4.55C29.244 4.67667 29.184 4.83333 29.1773 5.02C29.1373 5.84 29.1073 6.59667 29.0873 7.29C29.074 7.98333 29.0673 8.64333 29.0673 9.27C29.074 9.89 29.0873 10.51 29.1073 11.13C29.1273 11.7433 29.1507 12.3867 29.1773 13.06C29.184 13.2467 29.244 13.4033 29.3573 13.53C29.4773 13.6567 29.6507 13.75 29.8773 13.81V16.16ZM31.1973 16.16V13.81C31.424 13.75 31.594 13.6567 31.7073 13.53C31.8273 13.4033 31.8907 13.2467 31.8973 13.06C31.9373 12.2 31.964 11.4167 31.9773 10.71C31.9907 10.0033 31.994 9.34 31.9873 8.72C31.9873 8.09333 31.9773 7.48333 31.9573 6.89C31.944 6.29 31.924 5.67333 31.8973 5.04C31.8907 4.84667 31.8307 4.68667 31.7173 4.56C31.604 4.42667 31.4307 4.33 31.1973 4.27V1.92C32.4507 1.99333 33.3507 2.31667 33.8973 2.89C34.4507 3.46333 34.7507 4.36 34.7973 5.58C34.8173 6.03333 34.8307 6.49667 34.8373 6.97C34.8507 7.44333 34.8573 7.91667 34.8573 8.39C34.864 8.86333 34.864 9.33333 34.8573 9.8C34.8573 10.2667 34.8507 10.7267 34.8373 11.18C34.824 11.6267 34.8107 12.06 34.7973 12.48C34.7507 13.7067 34.4507 14.61 33.8973 15.19C33.3507 15.7633 32.4507 16.0867 31.1973 16.16ZM36.4664 16V2.08H39.3664V16H36.4664ZM40.6864 16V13.52H43.5664V16H40.6864ZM48.1 16.16C46.8533 16.0867 45.95 15.7633 45.39 15.19C44.83 14.6167 44.5333 13.72 44.5 12.5C44.48 11.9 44.4667 11.2867 44.46 10.66C44.4533 10.0333 44.45 9.41667 44.45 8.81C44.45 8.19667 44.4533 7.61333 44.46 7.06C44.4733 6.50667 44.4867 6.00667 44.5 5.56C44.5333 4.34667 44.83 3.45667 45.39 2.89C45.95 2.31667 46.8533 1.99333 48.1 1.92V4.27C47.8733 4.33 47.7 4.42333 47.58 4.55C47.4667 4.67667 47.4067 4.83333 47.4 5.02C47.36 5.84 47.33 6.59667 47.31 7.29C47.2967 7.98333 47.29 8.64333 47.29 9.27C47.2967 9.89 47.31 10.51 47.33 11.13C47.35 11.7433 47.3733 12.3867 47.4 13.06C47.4067 13.2467 47.4667 13.4033 47.58 13.53C47.7 13.6567 47.8733 13.75 48.1 13.81V16.16ZM49.42 16.16V13.81C49.6467 13.75 49.8167 13.6567 49.93 13.53C50.05 13.4033 50.1133 13.2467 50.12 13.06C50.16 12.2 50.1867 11.4167 50.2 10.71C50.2133 10.0033 50.2167 9.34 50.21 8.72C50.21 8.09333 50.2 7.48333 50.18 6.89C50.1667 6.29 50.1467 5.67333 50.12 5.04C50.1133 4.84667 50.0533 4.68667 49.94 4.56C49.8267 4.42667 49.6533 4.33 49.42 4.27V1.92C50.6733 1.99333 51.5733 2.31667 52.12 2.89C52.6733 3.46333 52.9733 4.36 53.02 5.58C53.04 6.03333 53.0533 6.49667 53.06 6.97C53.0733 7.44333 53.08 7.91667 53.08 8.39C53.0867 8.86333 53.0867 9.33333 53.08 9.8C53.08 10.2667 53.0733 10.7267 53.06 11.18C53.0467 11.6267 53.0333 12.06 53.02 12.48C52.9733 13.7067 52.6733 14.61 52.12 15.19C51.5733 15.7633 50.6733 16.0867 49.42 16.16ZM53.7375 2.08H56.7375L57.9775 8.94L57.9575 12.6H55.6575L53.7375 2.08ZM55.7975 13.52H58.8775L59.1175 8.94L60.3575 2.08H63.3575L60.9375 16H56.2375L55.7975 13.52ZM68.8894 16.16V13.81C69.1227 13.7567 69.2927 13.6633 69.3994 13.53C69.5127 13.3967 69.5827 13.2267 69.6094 13.02C69.6694 12.64 69.6927 12.34 69.6794 12.12C69.666 11.8933 69.6427 11.66 69.6094 11.42C69.5827 11.1867 69.4927 10.9833 69.3394 10.81C69.1927 10.63 68.9294 10.5 68.5494 10.42L66.8694 10.06C66.1494 9.90667 65.5827 9.67667 65.1694 9.37C64.756 9.05667 64.456 8.67667 64.2694 8.23C64.0894 7.77667 63.9894 7.26 63.9694 6.68C63.9627 6.44667 63.9594 6.25 63.9594 6.09C63.9594 5.92333 63.9627 5.74667 63.9694 5.56C64.0227 4.34667 64.3194 3.45667 64.8594 2.89C65.3994 2.31667 66.3094 1.99333 67.5894 1.92V4.27C67.3627 4.33 67.1927 4.42 67.0794 4.54C66.9727 4.66 66.9027 4.80667 66.8694 4.98C66.8294 5.26 66.806 5.54333 66.7994 5.83C66.7994 6.11 66.8227 6.40667 66.8694 6.72C66.9027 6.88667 67.0027 7.06 67.1694 7.24C67.336 7.41333 67.6094 7.54 67.9894 7.62L69.4494 7.92C70.1494 8.06 70.7194 8.27333 71.1594 8.56C71.5994 8.84667 71.926 9.22333 72.1394 9.69C72.3594 10.1567 72.4894 10.7333 72.5294 11.42C72.536 11.56 72.5394 11.6633 72.5394 11.73C72.546 11.7967 72.546 11.88 72.5394 11.98C72.5327 12.08 72.5227 12.2533 72.5094 12.5C72.4427 13.72 72.1327 14.6167 71.5794 15.19C71.0327 15.7633 70.136 16.0867 68.8894 16.16ZM67.5694 16.16C66.4027 16.16 65.5227 15.8467 64.9294 15.22C64.3427 14.5867 64.0494 13.68 64.0494 12.5C64.0494 12.1867 64.0494 11.87 64.0494 11.55C64.056 11.23 64.0827 10.9667 64.1294 10.76H66.8494C66.8227 11.1133 66.8027 11.4233 66.7894 11.69C66.7827 11.95 66.7827 12.19 66.7894 12.41C66.8027 12.6233 66.8227 12.84 66.8494 13.06C66.8694 13.2467 66.936 13.4033 67.0494 13.53C67.1694 13.65 67.3427 13.74 67.5694 13.8V16.16ZM69.6294 7.36C69.6494 6.95333 69.6594 6.62667 69.6594 6.38C69.666 6.13333 69.666 5.91 69.6594 5.71C69.6527 5.51 69.6427 5.28 69.6294 5.02C69.6227 4.83333 69.5594 4.67667 69.4394 4.55C69.3194 4.42333 69.1427 4.33 68.9094 4.27V1.92C70.1094 2 70.9827 2.33 71.5294 2.91C72.076 3.48333 72.3827 4.36667 72.4494 5.56C72.456 5.64667 72.456 5.82333 72.4494 6.09C72.4494 6.35 72.4427 6.61 72.4294 6.87C72.4227 7.13 72.416 7.29333 72.4094 7.36H69.6294ZM74.0641 16V8.52H77.1241L78.2841 5.52L79.7841 2.08H82.9241L77.0041 14.18V16H74.0641ZM80.1641 16L79.0041 13.06L80.7441 9.46L83.1041 16H80.1641ZM74.0641 7.6V2.08H77.1241L77.0841 5.52L76.6041 7.6H74.0641ZM83.4922 16L85.8122 2.08H90.4122L90.8322 4.56H87.8122L87.4922 7.7L87.1122 10.78H88.5122L88.0522 13.26H86.7922L86.4522 16H83.4922ZM89.7722 16L88.7122 7.7L88.5322 5.48H90.9122L92.7322 16H89.7722ZM94.0078 16V-2.38419e-07H97.0078V16H94.0078Z" fill="#374375"/>
</svg>
