<svg width="1512" height="168" viewBox="0 0 1512 168" fill="none" xmlns="http://www.w3.org/2000/svg">
<g filter="url(#filter0_d_397_1663)">
<path d="M95.2818 156.331C69.5741 156.331 45.7328 156.323 24.3024 156.323C13.1569 156.323 4.93605 155.272 4.93605 151.206C4.93605 150.63 4.60229 145.92 4.60229 145.346C4.60229 144.773 4.93605 140.2 4.93605 139.625C4.93605 135.559 95.2905 106.447 95.2905 106.447C307.767 106.262 1276.73 106.447 1420.42 106.447C1420.42 106.447 1510.78 135.559 1510.78 139.625C1510.78 140.202 1511.11 144.771 1511.1 145.346C1511.1 145.921 1510.78 150.633 1510.78 151.206C1510.78 155.272 1502.55 156.323 1491.41 156.323C1273.83 156.323 1014.32 156.644 860.667 156.648C716.956 156.64 328.825 156.382 95.2818 156.331Z" fill="#FFFCF5"/>
<path fill-rule="evenodd" clip-rule="evenodd" d="M95.2903 106.447C95.2709 106.441 95.2706 106.441 95.2699 106.442L94.2561 106.769C93.5943 106.983 92.6237 107.298 91.3884 107.7C88.9177 108.504 85.3882 109.657 81.1528 111.054C72.682 113.846 61.3875 117.613 50.093 121.506C38.7986 125.399 27.5038 129.419 19.0326 132.72C14.797 134.371 11.2669 135.842 8.79552 137.027C7.55986 137.62 6.58852 138.142 5.92599 138.579C5.26391 139.016 4.90858 139.369 4.90858 139.625C4.90858 139.913 4.82515 141.199 4.74171 142.486L4.74153 142.489C4.65816 143.774 4.57483 145.059 4.57483 145.346C4.57483 145.632 4.65806 146.951 4.74138 148.27L4.74171 148.275C4.82515 149.597 4.90858 150.918 4.90858 151.206C4.90858 153.241 6.96626 154.524 10.4237 155.296C13.8792 156.069 18.7278 156.332 24.3022 156.332C34.5497 156.332 45.3484 156.334 56.6389 156.336L58.1879 156.336C70.0405 156.338 82.4277 156.34 95.2816 156.34C213.369 156.365 370.979 156.444 516.531 156.516C658.839 156.587 789.621 156.653 860.666 156.657C930.108 156.655 1021.16 156.588 1120.2 156.516C1240.31 156.428 1372.15 156.332 1491.41 156.332C1496.98 156.332 1501.83 156.069 1505.29 155.296C1508.74 154.524 1510.8 153.241 1510.8 151.206C1510.8 150.92 1510.88 149.598 1510.97 148.277C1511.05 146.955 1511.13 145.634 1511.13 145.346C1511.13 145.058 1511.05 143.772 1510.97 142.486L1510.96 142.402C1510.88 141.144 1510.8 139.907 1510.8 139.625C1510.8 139.369 1510.45 139.016 1509.79 138.579C1509.12 138.142 1508.15 137.62 1506.92 137.027C1504.44 135.842 1500.91 134.371 1496.68 132.72C1488.21 129.419 1476.91 125.399 1465.62 121.506C1454.32 117.613 1443.03 113.846 1434.56 111.054C1430.32 109.657 1426.79 108.504 1424.32 107.7C1423.09 107.298 1422.12 106.983 1421.46 106.769L1420.46 106.447L1420.44 106.443L1420.45 106.439H1420.42C1387.84 106.439 1312.85 106.429 1213.86 106.417C876.248 106.374 259.594 106.295 95.2903 106.439L95.2902 106.435L95.2699 106.442L95.2903 106.447ZM1213.86 106.434C876.255 106.391 259.623 106.312 95.3018 106.456L94.2951 106.781C93.6333 106.996 92.6628 107.31 91.4275 107.712C88.9569 108.516 85.4274 109.669 81.1921 111.066C72.7215 113.858 61.4273 117.624 50.1332 121.517C38.839 125.41 27.5451 129.43 19.0749 132.731C14.8398 134.382 11.3109 135.852 8.84103 137.037C7.60606 137.629 6.63619 138.15 5.97516 138.586C5.31369 139.023 4.96313 139.373 4.96313 139.625C4.96313 139.913 4.87968 141.2 4.79625 142.486C4.71285 143.772 4.62938 145.06 4.62938 145.346C4.62938 145.632 4.71262 146.951 4.79597 148.271L4.79625 148.275C4.87968 149.596 4.96313 150.918 4.96313 151.206C4.96313 153.237 7.01586 154.513 10.4552 155.282C13.8965 156.052 18.7311 156.314 24.3022 156.314C34.5303 156.314 45.3075 156.316 56.5747 156.318L58.1879 156.319C70.0405 156.321 82.4277 156.323 95.2816 156.323C213.367 156.348 370.975 156.427 516.525 156.499C658.835 156.57 789.62 156.635 860.666 156.639C930.106 156.638 1021.16 156.571 1120.2 156.499C1240.31 156.411 1372.16 156.314 1491.41 156.314C1496.98 156.314 1501.81 156.052 1505.25 155.282C1508.69 154.513 1510.75 153.237 1510.75 151.206C1510.75 150.92 1510.83 149.598 1510.91 148.277C1510.99 146.955 1511.08 145.633 1511.08 145.346C1511.08 145.059 1511 143.773 1510.91 142.486L1510.91 142.389C1510.83 141.136 1510.75 139.906 1510.75 139.625C1510.75 139.373 1510.4 139.023 1509.74 138.586C1509.08 138.15 1508.11 137.629 1506.87 137.037C1504.4 135.852 1500.87 134.382 1496.64 132.731C1488.17 129.43 1476.87 125.41 1465.58 121.517C1454.28 117.624 1442.99 113.858 1434.52 111.066C1430.28 109.669 1426.75 108.516 1424.28 107.712C1423.05 107.31 1422.08 106.996 1421.42 106.781L1420.66 106.537L1420.41 106.456C1387.83 106.456 1312.83 106.446 1213.86 106.434Z" fill="#374375" fill-opacity="0.5"/>
<path d="M0.676163 155.237C-0.664799 154.393 -1.31137 153.454 -1.20339 152.508C-1.20339 151.932 -1.5547 147.22 -1.55031 146.648C-1.54592 146.076 -1.20339 140.397 -1.20339 139.821V137.728H5.74392C229.432 137.542 1354.27 136.734 1505.54 136.734H1510.76V139.822C1510.76 140.398 1511.11 146.073 1511.1 146.649C1511.1 147.226 1510.76 151.938 1510.76 152.51C1510.76 156.576 1502.1 157.625 1490.37 157.625C1261.31 157.625 1024.78 157.946 863.012 157.95C711.721 157.942 303.121 157.685 57.2603 157.633C30.1912 157.633 41.7496 157.625 19.1862 157.625C10.6931 157.623 3.83802 157.075 0.676163 155.237Z" fill="#BABDE2"/>
<path fill-rule="evenodd" clip-rule="evenodd" d="M1505.54 136.743C1354.27 136.743 229.432 137.551 5.7438 137.736H-1.1763V139.821C-1.1763 140.109 -1.26195 141.673 -1.34812 143.236L-1.35826 143.42C-1.44098 144.92 -1.52112 146.373 -1.52323 146.648C-1.52543 146.934 -1.43871 148.255 -1.35142 149.576L-1.34468 149.678C-1.25968 150.965 -1.1763 152.227 -1.1763 152.508C-1.28412 153.452 -0.638625 154.39 0.700137 155.234C3.85416 157.066 10.6941 157.615 19.186 157.616C29.9546 157.616 32.9511 157.618 36.0839 157.62L36.5335 157.62C39.8479 157.623 43.7256 157.625 57.2601 157.625C180.867 157.651 345.609 157.728 498.106 157.8C648.933 157.872 787.783 157.937 863.011 157.941C936.177 157.94 1024.64 157.873 1120.79 157.8L1151.45 157.777C1259.44 157.697 1375.84 157.616 1490.37 157.616C1496.23 157.616 1501.32 157.354 1504.95 156.585C1508.57 155.816 1510.73 154.54 1510.73 152.51C1510.73 152.224 1510.82 150.902 1510.9 149.581L1510.91 149.446C1510.99 148.171 1511.08 146.928 1511.08 146.649C1511.08 146.361 1510.99 144.799 1510.91 143.236L1510.9 143.097C1510.81 141.581 1510.73 140.102 1510.73 139.822V136.743H1505.54ZM1510.76 136.734V136.726H1505.54C1354.27 136.726 229.432 137.533 5.74373 137.719C5.74375 137.719 5.7437 137.719 5.74373 137.719M1510.76 136.734H1510.78V139.822C1510.78 140.1 1510.87 141.56 1510.95 143.064L1510.96 143.236C1511.05 144.798 1511.13 146.361 1511.13 146.649C1511.13 146.928 1511.05 148.175 1510.97 149.453L1510.96 149.581C1510.87 150.903 1510.78 152.224 1510.78 152.51C1510.78 154.545 1508.62 155.827 1504.98 156.599C1501.34 157.371 1496.24 157.634 1490.37 157.634C1375.84 157.634 1259.44 157.714 1151.45 157.795L1120.79 157.818C1024.64 157.89 936.177 157.957 863.011 157.959C787.784 157.955 648.937 157.889 498.113 157.818C345.614 157.746 180.869 157.668 57.2601 157.642C43.7255 157.642 39.8479 157.64 36.5334 157.638L36.0814 157.637C32.9495 157.635 29.9519 157.634 19.186 157.634C10.692 157.632 3.82182 157.084 0.652027 155.242C-0.690925 154.396 -1.33891 153.455 -1.23085 152.508C-1.23088 152.227 -1.31425 150.965 -1.39926 149.678L-1.40596 149.577C-1.49323 148.255 -1.57998 146.934 -1.57778 146.648C-1.57567 146.373 -1.49554 144.92 -1.41283 143.42L-1.40267 143.236C-1.31648 141.672 -1.23085 140.109 -1.23085 139.821V137.728H-1.20358" fill="#374375" fill-opacity="0.5"/>
<path d="M95.281 152.983C77.5658 152.983 59.8536 152.98 42.1442 152.974C34.9415 153.132 27.7114 153.117 20.5163 152.927C16.1687 152.709 15.6856 152.407 15.488 151.039C15.1587 148.685 15.0884 146.312 15.2289 143.957C15.6708 142.612 15.7545 141.259 15.4792 139.91C15.0401 139.056 14.9698 140.811 15.3695 140.05C15.3695 140.05 14.1969 140.629 15.5978 139.927C32.2854 131.572 57.409 123.804 79.7967 116.346C87.4086 113.815 95.0629 111.3 102.76 108.803L95.2942 109.78C161.966 109.721 228.637 109.697 295.308 109.708C395.668 109.694 496.026 109.691 596.383 109.699C707.259 109.699 818.133 109.707 929.006 109.724C1027.45 109.734 1125.89 109.746 1224.34 109.759C1285.82 109.767 1347.3 109.774 1408.78 109.78H1420.44L1412.97 108.803C1433.86 115.535 1454.41 122.396 1474.12 129.474C1483.91 132.75 1492.72 136.309 1500.42 140.105C1501.9 140.885 1499.84 139.459 1500.47 140.179C1500.12 139.772 1500.38 139.356 1500.27 140.375C1500.12 141.88 1500.52 143.403 1500.56 144.91C1500.58 146.116 1500.46 147.323 1500.39 148.53C1500.34 149.412 1501.38 151.6 1499.68 152.363C1497.61 153.291 1490.46 152.966 1487.63 152.966H1460.91C1444.09 152.966 1427.25 152.97 1410.41 152.977C1375.62 152.988 1340.84 153.004 1306.05 153.023C1236.91 153.062 1167.77 153.109 1098.63 153.163C996.941 153.236 895.255 153.273 793.569 153.273C687.986 153.24 582.399 153.193 476.808 153.134C361.772 153.077 246.736 153.027 131.7 152.986L95.2503 152.976C81.6894 152.976 81.6675 159.673 95.2503 159.673C236.656 159.704 378.061 159.764 519.466 159.852C636.809 159.911 754.155 159.957 871.504 159.992C1029.63 159.973 1187.75 159.781 1345.88 159.705C1388.47 159.686 1431.07 159.673 1473.67 159.668C1489.89 159.668 1512.85 160.586 1519.64 154.488C1523.05 151.419 1521.77 147.403 1521.58 144.177C1521.42 141.349 1522.23 138.706 1517.67 136.186C1513 133.816 1507.72 131.575 1501.86 129.488C1486.42 123.578 1469.8 117.965 1453.17 112.399C1446.73 110.243 1440.24 108.1 1433.7 105.968C1429.4 104.565 1426.23 103.192 1419.49 103.089C1410.03 102.949 1400.42 103.089 1390.95 103.089L1300.65 103.079L1022.13 103.044C907.262 103.031 792.396 103.021 677.533 103.014C568.428 103.007 459.322 103.007 350.215 103.014C272.559 103.021 194.902 103.041 117.243 103.074L99.33 103.088C96.4117 103.059 93.5123 103.246 90.8583 103.632C88.2042 104.019 85.8673 104.595 84.0301 105.316C69.872 109.921 55.913 114.59 42.153 119.321C27.4109 124.408 11.6499 129.56 -0.321269 135.367C-4.34304 137.417 -6.23706 139.816 -5.73595 142.226C-5.93796 145.436 -6.24536 148.696 -5.49881 151.894C-4.03645 158.197 12.2208 159.672 29.3124 159.673C51.3107 159.673 73.3076 159.676 95.303 159.682C108.846 159.683 108.868 152.986 95.281 152.983Z" fill="#374375" fill-opacity="0.5"/>
<path fill-rule="evenodd" clip-rule="evenodd" d="M350.216 103.005C459.323 102.998 568.429 102.998 677.534 103.005C792.397 103.012 907.263 103.023 1022.13 103.036L1390.95 103.08C1394.1 103.08 1397.27 103.065 1400.44 103.049C1406.8 103.018 1413.18 102.987 1419.5 103.08C1425.4 103.171 1428.57 104.237 1432.15 105.441C1432.66 105.613 1433.18 105.787 1433.72 105.961C1440.26 108.093 1446.75 110.237 1453.19 112.393C1469.82 117.958 1486.44 123.572 1501.88 129.483C1507.74 131.57 1513.03 133.81 1517.69 136.181C1521.56 138.32 1521.57 140.549 1521.58 142.901C1521.58 143.322 1521.59 143.747 1521.61 144.177C1521.64 144.759 1521.71 145.367 1521.78 145.99C1521.91 147.094 1522.04 148.247 1521.99 149.391C1521.91 151.182 1521.37 152.955 1519.66 154.491C1516.27 157.544 1508.82 158.84 1500.2 159.373C1493.52 159.786 1486.13 159.741 1479.37 159.7C1477.41 159.688 1475.5 159.676 1473.67 159.676C1431.07 159.682 1388.47 159.694 1345.88 159.714C1282.33 159.744 1218.77 159.793 1155.22 159.843C1060.65 159.916 966.076 159.989 871.505 160C754.156 159.966 636.81 159.919 519.467 159.86C378.351 159.772 237.234 159.713 96.1174 159.682C95.8519 159.688 95.5807 159.69 95.3038 159.69C73.3084 159.685 51.3115 159.682 29.3132 159.682C20.7658 159.681 12.4228 159.312 6.03312 158.154C-0.358625 156.996 -4.79335 155.049 -5.52517 151.895C-6.20571 148.98 -6.01056 146.012 -5.81772 143.08C-5.79899 142.795 -5.78028 142.51 -5.7624 142.226C-6.26361 139.814 -4.36816 137.413 -0.343583 135.362C10.1058 130.293 23.4428 125.723 36.4675 121.261C38.3662 120.61 40.2583 119.962 42.1338 119.315C55.8936 114.584 69.8525 109.916 84.0105 105.31C85.8502 104.588 88.1902 104.011 90.8477 103.624C93.5055 103.237 96.4089 103.05 99.3312 103.079C99.3314 103.079 99.3311 103.079 99.3312 103.079L117.244 103.065C194.902 103.032 272.56 103.012 350.216 103.005ZM96.7174 159.665C237.634 159.696 378.551 159.755 519.467 159.843C636.81 159.902 754.156 159.948 871.505 159.983C966.074 159.972 1060.64 159.899 1155.21 159.825C1218.77 159.776 1282.32 159.727 1345.88 159.697C1388.47 159.677 1431.07 159.665 1473.67 159.659C1475.5 159.659 1477.41 159.671 1479.37 159.683C1486.13 159.724 1493.51 159.769 1500.19 159.356C1508.8 158.824 1516.22 157.53 1519.61 154.485C1521.32 152.952 1521.85 151.182 1521.93 149.391C1521.99 148.247 1521.86 147.095 1521.73 145.991C1521.66 145.368 1521.59 144.76 1521.56 144.177C1521.53 143.747 1521.53 143.321 1521.53 142.9C1521.52 140.548 1521.51 138.325 1517.65 136.19C1512.98 133.82 1507.7 131.58 1501.84 129.494C1486.4 123.584 1469.78 117.97 1453.15 112.404C1446.71 110.249 1440.22 108.105 1433.68 105.973C1433.14 105.799 1432.62 105.624 1432.11 105.453C1428.53 104.248 1425.38 103.188 1419.49 103.098C1413.18 103.004 1406.8 103.036 1400.44 103.067C1397.27 103.082 1394.1 103.098 1390.95 103.098L1022.13 103.053C907.263 103.04 792.397 103.03 677.534 103.022C568.429 103.016 459.323 103.016 350.216 103.022C272.56 103.03 194.902 103.05 117.244 103.082L99.3309 103.096C96.4168 103.068 93.5207 103.254 90.8705 103.64C88.2202 104.026 85.8867 104.601 84.0522 105.321C69.8942 109.927 55.9337 114.595 42.1739 119.326C40.2982 119.974 38.406 120.622 36.5073 121.273C23.4824 125.735 10.1493 130.304 -0.297415 135.371C-4.31607 137.42 -6.20861 139.817 -5.70789 142.226C-5.72588 142.51 -5.74444 142.795 -5.76317 143.08C-5.95602 146.013 -6.1511 148.979 -5.47077 151.894C-4.74022 155.042 -0.315157 156.984 6.0602 158.139C12.4376 159.295 20.7691 159.664 29.3132 159.665C51.0079 159.665 72.7012 159.667 94.393 159.673C91.4154 159.608 89.1485 159.208 87.5932 158.632C85.8922 158.003 85.0436 157.163 85.045 156.324C85.0464 155.486 85.8977 154.646 87.5994 154.017C89.0623 153.475 91.1529 153.089 93.869 152.991C76.6253 152.991 59.3843 152.988 42.146 152.983C34.9422 153.141 27.7111 153.125 20.5148 152.935C18.3418 152.827 17.1217 152.696 16.4254 152.419C16.0773 152.281 15.8613 152.107 15.7198 151.882C15.5783 151.657 15.511 151.381 15.4616 151.039C15.1322 148.685 15.062 146.312 15.2025 143.956C15.6337 142.644 15.7239 141.323 15.4718 140.006C15.4412 140.022 15.4121 140.036 15.3845 140.05L15.3972 140.051C15.3473 140.146 15.3043 140.203 15.2674 140.231C15.2581 140.237 15.2485 140.243 15.2382 140.247C15.2286 140.251 15.2138 140.255 15.1937 140.255C15.1732 140.255 15.1597 140.25 15.1518 140.247C15.1434 140.243 15.1367 140.237 15.131 140.232C15.1219 140.222 15.1141 140.21 15.1075 140.195L14.982 140.256L14.9466 140.273L14.9365 140.278L14.93 140.28C14.9299 140.28 14.9322 140.28 14.93 140.28C14.9291 140.28 14.9242 140.282 14.923 140.282C14.9201 140.282 14.9112 140.283 14.9053 140.282C14.8975 140.282 14.887 140.278 14.8845 140.276L14.8838 140.273L14.8859 140.27L14.8904 140.268L14.9016 140.262L14.9488 140.237C14.982 140.22 15.0301 140.196 15.0963 140.163C15.0922 140.148 15.0889 140.132 15.0864 140.115C15.0787 140.064 15.0777 140.004 15.0834 139.945C15.089 139.886 15.1013 139.827 15.1199 139.779C15.1293 139.755 15.1402 139.733 15.1529 139.715C15.1655 139.698 15.1802 139.684 15.1981 139.674C15.207 139.669 15.2185 139.665 15.2339 139.663C15.2515 139.66 15.2701 139.66 15.2865 139.664C15.3013 139.666 15.3138 139.671 15.3248 139.677C15.3361 139.682 15.3472 139.69 15.3583 139.699C15.4026 139.735 15.4521 139.802 15.507 139.909C15.5099 139.923 15.5131 139.938 15.5159 139.952C15.5353 139.942 15.5552 139.932 15.5756 139.922C29.772 132.814 50.073 126.131 69.5996 119.704C73.0286 118.575 76.4338 117.454 79.7778 116.34C86.3874 114.142 93.0289 111.957 99.7025 109.784C98.2371 109.786 96.7717 109.787 95.3063 109.788L95.2847 109.771L102.739 108.796L102.78 108.809C101.797 109.128 100.814 109.447 99.8321 109.767C164.991 109.711 230.15 109.689 295.309 109.7C395.669 109.686 496.027 109.682 596.384 109.69C707.26 109.69 818.134 109.698 929.007 109.715C1027.45 109.725 1125.9 109.737 1224.34 109.75C1285.82 109.758 1347.3 109.765 1408.78 109.771H1415.93C1414.94 109.45 1413.95 109.129 1412.95 108.809L1412.96 108.811L1412.98 108.795L1420.44 109.77V109.788H1416.06C1435.89 116.203 1455.39 122.737 1474.14 129.468C1483.86 132.72 1492.61 136.252 1500.27 140.017C1500.28 139.962 1500.28 139.916 1500.27 139.878C1500.25 139.807 1500.25 139.755 1500.25 139.741L1500.25 139.738C1500.26 139.738 1500.26 139.736 1500.26 139.735C1500.26 139.734 1500.27 139.732 1500.27 139.731C1500.28 139.73 1500.29 139.73 1500.29 139.731C1500.3 139.732 1500.31 139.735 1500.31 139.735C1500.31 139.736 1500.31 139.738 1500.31 139.739C1500.31 139.742 1500.32 139.748 1500.32 139.757C1500.32 139.776 1500.33 139.808 1500.33 139.857C1500.33 139.863 1500.33 139.87 1500.33 139.877C1500.33 139.882 1500.33 139.888 1500.33 139.894C1500.34 139.915 1500.35 139.938 1500.36 139.962C1500.37 139.961 1500.38 139.96 1500.39 139.961C1500.4 139.961 1500.41 139.964 1500.43 139.967C1500.45 139.973 1500.48 139.983 1500.5 139.995C1500.53 140.008 1500.56 140.023 1500.6 140.041C1500.66 140.076 1500.73 140.119 1500.79 140.161C1500.86 140.203 1500.91 140.246 1500.95 140.279C1500.97 140.295 1500.98 140.31 1500.99 140.321C1500.99 140.327 1501 140.332 1501 140.336C1501 140.34 1501 140.345 1500.99 140.349C1500.99 140.352 1500.98 140.354 1500.97 140.355C1500.96 140.355 1500.96 140.355 1500.95 140.355C1500.95 140.355 1500.95 140.355 1500.94 140.354C1500.93 140.353 1500.92 140.35 1500.9 140.346C1500.88 140.339 1500.85 140.327 1500.8 140.308C1500.73 140.276 1500.62 140.226 1500.48 140.152M1500.48 140.152C1500.46 140.135 1500.45 140.118 1500.44 140.101C1500.63 140.199 1500.76 140.261 1500.85 140.298C1500.89 140.316 1500.92 140.328 1500.94 140.334C1500.94 140.334 1500.94 140.333 1500.94 140.334C1500.94 140.332 1500.94 140.332 1500.94 140.33L1500.94 140.325C1500.93 140.315 1500.92 140.301 1500.9 140.285C1500.86 140.252 1500.81 140.211 1500.74 140.168C1500.68 140.126 1500.61 140.084 1500.55 140.049C1500.53 140.04 1500.51 140.031 1500.5 140.023C1500.48 140.016 1500.47 140.01 1500.46 140.005C1500.44 139.997 1500.42 139.99 1500.41 139.985C1500.4 139.983 1500.4 139.982 1500.39 139.98L1500.38 139.978C1500.38 139.979 1500.38 139.981 1500.38 139.983C1500.38 139.987 1500.38 139.992 1500.38 139.998C1500.39 140.03 1500.41 140.064 1500.44 140.098C1500.44 140.099 1500.44 140.1 1500.44 140.101M1500.33 140.015C1500.33 140.026 1500.34 140.039 1500.35 140.054C1500.34 140.05 1500.33 140.047 1500.33 140.043C1500.33 140.034 1500.33 140.025 1500.33 140.015ZM1500.33 140.075C1500.32 140.157 1500.32 140.256 1500.3 140.375C1500.21 141.283 1500.32 142.196 1500.43 143.109C1500.5 143.71 1500.57 144.311 1500.58 144.909C1500.6 145.836 1500.54 146.763 1500.47 147.69C1500.45 147.97 1500.43 148.25 1500.42 148.53C1500.4 148.75 1500.46 149.052 1500.52 149.393C1500.59 149.734 1500.66 150.114 1500.68 150.491C1500.7 150.867 1500.67 151.241 1500.53 151.567C1500.39 151.894 1500.13 152.176 1499.71 152.368C1499.18 152.602 1498.34 152.757 1497.33 152.857C1496.32 152.957 1495.15 153.004 1493.94 153.021C1492.74 153.039 1491.52 153.027 1490.41 153.011C1490.1 153.006 1489.8 153.001 1489.51 152.997C1488.78 152.985 1488.13 152.975 1487.63 152.975H1460.92C1444.09 152.975 1427.25 152.978 1410.41 152.986C1375.62 152.997 1340.84 153.012 1306.05 153.032C1236.91 153.071 1167.77 153.117 1098.63 153.171C996.941 153.245 895.256 153.282 793.57 153.282C687.987 153.248 582.4 153.202 476.808 153.142C361.772 153.085 246.736 153.036 131.7 152.994L96.1949 152.985C99.1466 153.053 101.396 153.453 102.943 154.025C104.645 154.655 105.494 155.495 105.494 156.334C105.494 157.173 104.645 158.012 102.945 158.641C101.491 159.181 99.4138 159.565 96.7174 159.665M94.5031 152.991C94.7627 152.991 95.0223 152.991 95.2819 152.991C98.6709 152.992 101.21 153.41 102.901 154.036C104.593 154.663 105.44 155.498 105.44 156.334C105.44 157.169 104.593 158.004 102.904 158.63C101.353 159.205 99.0905 159.604 96.1156 159.665C95.8274 159.665 95.5393 159.665 95.2511 159.665C91.8632 159.665 89.3254 159.247 87.6346 158.621C85.9433 157.995 85.0982 157.16 85.0995 156.324C85.1009 155.489 85.9488 154.654 87.6408 154.028C89.2052 153.449 91.4924 153.048 94.5031 152.991ZM94.5015 152.974C94.7466 152.969 94.9965 152.967 95.2511 152.967L131.7 152.977C246.736 153.019 361.772 153.068 476.808 153.125C582.4 153.184 687.987 153.231 793.57 153.264C895.255 153.264 996.941 153.228 1098.63 153.154C1167.77 153.1 1236.91 153.054 1306.05 153.014C1340.84 152.995 1375.62 152.98 1410.41 152.968C1427.25 152.961 1444.09 152.957 1460.92 152.957H1487.63C1488.14 152.957 1488.78 152.968 1489.51 152.98C1489.8 152.984 1490.11 152.989 1490.42 152.994C1491.52 153.01 1492.74 153.021 1493.94 153.004C1495.14 152.987 1496.31 152.94 1497.32 152.841C1498.32 152.741 1499.15 152.588 1499.66 152.358C1500.08 152.169 1500.33 151.891 1500.48 151.565C1500.62 151.24 1500.65 150.867 1500.63 150.491C1500.61 150.124 1500.54 149.752 1500.47 149.417L1500.47 149.394C1500.4 149.053 1500.35 148.751 1500.36 148.53C1500.38 148.25 1500.4 147.969 1500.42 147.689C1500.48 146.762 1500.55 145.836 1500.53 144.909C1500.52 144.312 1500.44 143.712 1500.37 143.111C1500.26 142.198 1500.16 141.283 1500.25 140.374C1500.26 140.243 1500.27 140.135 1500.27 140.048C1492.6 136.276 1483.84 132.738 1474.1 129.48C1455.34 122.745 1435.83 116.206 1415.99 109.788H1408.78C1347.3 109.783 1285.82 109.776 1224.34 109.767C1125.9 109.754 1027.45 109.743 929.007 109.732C818.134 109.716 707.26 109.707 596.384 109.707C496.027 109.7 395.669 109.703 295.309 109.717C230.132 109.706 164.956 109.728 99.7789 109.784C93.0929 111.961 86.439 114.15 79.8173 116.352C76.4728 117.466 73.0673 118.587 69.638 119.716C50.1113 126.144 29.8149 132.825 15.6217 139.931C15.5868 139.949 15.5535 139.966 15.5217 139.981C15.7795 141.307 15.6911 142.636 15.257 143.957C15.1165 146.312 15.1868 148.685 15.5161 151.039C15.5655 151.38 15.6327 151.655 15.7733 151.879C15.9138 152.102 16.1273 152.273 16.4681 152.409C17.1496 152.68 18.3465 152.809 20.5203 152.918C27.7138 153.108 34.9422 153.124 42.1432 152.966C59.5925 152.971 77.0465 152.974 94.5015 152.974ZM1500.33 140.075C1500.34 140.084 1500.36 140.093 1500.38 140.102C1500.4 140.125 1500.42 140.152 1500.45 140.182L1500.47 140.179L1500.5 140.177C1500.49 140.169 1500.49 140.16 1500.48 140.152M1416.01 109.771H1420.3L1413.09 108.827C1414.06 109.141 1415.04 109.456 1416.01 109.771ZM99.7558 109.767C100.719 109.453 101.684 109.14 102.648 108.827L95.4336 109.771C96.8743 109.769 98.315 109.768 99.7558 109.767ZM15.4661 139.977C15.3332 140.044 15.2276 140.097 15.1451 140.138C15.1435 140.131 15.1421 140.123 15.1409 140.115C15.1332 140.064 15.1323 140.004 15.1379 139.945C15.1435 139.886 15.1557 139.828 15.1741 139.781C15.1833 139.757 15.194 139.736 15.2061 139.719C15.2184 139.702 15.2317 139.69 15.2448 139.683C15.2512 139.68 15.2558 139.679 15.2576 139.678C15.2571 139.678 15.2579 139.678 15.2576 139.678C15.2614 139.679 15.2694 139.681 15.2785 139.686C15.2873 139.69 15.297 139.697 15.3075 139.705C15.3494 139.739 15.3981 139.804 15.453 139.911M15.3204 140.09L15.2319 140.134L15.1539 140.172C15.1616 140.195 15.1714 140.214 15.1832 140.226C15.1882 140.232 15.1931 140.235 15.1971 140.237C15.2016 140.239 15.2034 140.237 15.1971 140.237C15.1912 140.237 15.1908 140.239 15.1971 140.237C15.2028 140.235 15.2087 140.23 15.2171 140.224C15.2458 140.202 15.2803 140.16 15.3204 140.09Z" fill="#374375" fill-opacity="0.5"/>
<path d="M11.5367 140.869C40.4765 140.844 69.4178 140.82 98.3605 140.798L227.342 140.698L388.558 140.58L569.837 140.45L761.143 140.318L951.777 140.188L1131.05 140.072L1288.26 139.976C1329.76 139.951 1371.24 139.928 1412.73 139.907C1439.82 139.893 1466.91 139.883 1494 139.875H1505.82C1519.38 139.875 1519.41 133.178 1505.82 133.178C1482.93 133.178 1460.04 133.185 1437.16 133.2C1398.91 133.217 1360.67 133.237 1322.42 133.26C1272.13 133.288 1221.84 133.318 1171.55 133.351L996.64 133.462L807.772 133.589L615.649 133.722L430.962 133.853L264.402 133.976L126.668 134.079C93.8197 134.104 60.97 134.131 28.1189 134.159L11.5367 134.173C-2.02413 134.184 -2.05048 140.881 11.5367 140.87V140.869Z" fill="#374375" fill-opacity="0.5"/>
<path fill-rule="evenodd" clip-rule="evenodd" d="M1437.16 133.191C1460.04 133.176 1482.93 133.169 1505.82 133.169C1509.22 133.169 1511.78 133.589 1513.48 134.218C1515.18 134.848 1516.03 135.687 1516.03 136.526C1516.03 137.365 1515.17 138.205 1513.47 138.834C1511.77 139.464 1509.22 139.884 1505.82 139.884H1494C1466.91 139.891 1439.82 139.902 1412.73 139.916C1371.24 139.936 1329.75 139.959 1288.26 139.984L98.3604 140.806C69.4267 140.828 40.4945 140.852 11.5638 140.877V144.206L11.5366 140.879C8.13205 140.881 5.57843 140.464 3.87674 139.835C2.17555 139.207 1.32709 138.369 1.32874 137.53C1.33039 136.691 2.18216 135.851 3.88412 135.22C5.58657 134.588 8.13848 134.167 11.5365 134.164L28.1187 134.15C60.9698 134.122 93.8194 134.095 126.668 134.07L1171.55 133.342C1221.84 133.309 1272.13 133.279 1322.42 133.251C1360.67 133.228 1398.91 133.208 1437.16 133.191ZM11.5093 140.861V137.711L11.5365 140.86C40.4763 140.835 69.4175 140.811 98.3602 140.789L1288.26 139.967C1329.75 139.942 1371.24 139.919 1412.73 139.899C1439.82 139.885 1466.91 139.874 1494 139.866H1505.82C1509.2 139.866 1511.74 139.449 1513.43 138.823C1515.12 138.197 1515.97 137.362 1515.97 136.526C1515.97 135.691 1515.13 134.856 1513.44 134.23C1511.75 133.604 1509.21 133.186 1505.82 133.186C1482.93 133.186 1460.04 133.194 1437.16 133.209C1398.91 133.225 1360.67 133.245 1322.42 133.269C1272.13 133.296 1221.84 133.327 1171.55 133.359L126.668 134.088C93.8196 134.113 60.9699 134.139 28.1188 134.167L11.5366 134.181C8.15416 134.184 5.61746 134.604 3.92558 135.231C2.23321 135.858 1.38493 136.694 1.38329 137.53C1.38164 138.365 2.22664 139.199 3.91813 139.824C5.60461 140.447 8.13383 140.862 11.5093 140.861Z" fill="#374375" fill-opacity="0.5"/>
</g>
<path d="M1280.78 10.6102C1280.32 6.29914 1276.55 3.04833 1272.02 3.04833C1271.72 3.04833 1269.23 2.96303 1266.85 4.64175C1269.66 7.23051 1273.97 11.1836 1279.37 16.1216C1280.5 14.4993 1281 12.5713 1280.78 10.6102Z" fill="#CCFF66"/>
<path d="M1331.17 43.6182C1331.17 25.5922 1321.02 10.7972 1308.22 9.65381V73.2216H1318.71C1326.41 67.1477 1331.17 55.8686 1331.17 43.6182Z" fill="#669933"/>
<path d="M1264.64 6.84595C1263.52 8.46556 1263.03 10.3874 1263.24 12.3434C1263.7 16.6544 1267.47 19.9055 1272 19.9055C1272.3 19.9055 1275.04 19.8857 1277.16 18.3188C1270.92 12.6133 1267.05 9.06789 1264.64 6.84595Z" fill="#669933"/>
<path d="M1294.55 73.2213H1305.03V9.65356C1292.24 10.7973 1282.08 25.5923 1282.08 43.6179C1282.08 55.8693 1286.85 67.1484 1294.55 73.2213Z" fill="#669933"/>
<path d="M1282.1 73.2213H1289.89C1283.03 66.277 1278.89 55.3296 1278.89 43.6182C1278.89 33.8091 1281.72 24.5679 1286.84 17.5971C1288.21 15.7295 1289.71 14.084 1291.3 12.6682C1275.57 20.1015 1268.81 33.7878 1268.81 45.7152C1268.81 56.3402 1273.65 66.334 1282.1 73.2213Z" fill="#CCFF66"/>
<path d="M1321.98 12.696C1323.57 14.1054 1325.05 15.7418 1326.41 17.5972C1331.54 24.568 1334.36 33.8092 1334.36 43.6183C1334.36 55.3295 1330.22 66.2768 1323.36 73.2214H1331.15C1339.61 66.3344 1344.45 56.3406 1344.45 45.7154C1344.45 31.0115 1335.21 18.3321 1321.98 12.696Z" fill="#CCFF66"/>
<path d="M1267.75 81.1431C1267.75 83.8308 1270.04 86.0177 1272.85 86.0177H1340.4C1343.22 86.0177 1345.51 83.8308 1345.51 81.1431C1345.51 78.455 1343.22 76.2681 1340.4 76.2681H1272.85C1270.04 76.2681 1267.75 78.4547 1267.75 81.1431Z" fill="#CC6633"/>
<path d="M1279.39 128.953H1333.86L1338.29 89.0645H1274.97L1279.39 128.953Z" fill="#DFAEA1"/>
<path d="M1351.41 44.5548H1347.62C1347.44 38.9322 1346.03 33.6029 1343.62 28.8105L1347.07 27.1534C1347.86 26.7753 1348.17 25.8598 1347.78 25.1078C1347.38 24.3562 1346.42 24.0534 1345.64 24.4312L1342.13 26.1169C1338.07 19.4368 1332.01 14.0036 1324.73 10.5685L1326.67 7.15985C1327.09 6.42042 1326.81 5.49545 1326.03 5.0939C1325.26 4.69113 1324.29 4.96533 1323.87 5.70446L1321.81 9.32361C1317.11 7.52667 1311.99 6.53346 1306.63 6.53346C1306.63 6.53346 1306.63 6.53346 1306.63 6.53346H1306.63H1306.63C1306.63 6.53346 1306.62 6.53346 1306.62 6.53346C1299.76 6.53346 1296.03 7.56415 1291.49 9.2843L1289.46 5.70446C1289.04 4.96533 1288.07 4.69113 1287.29 5.0939C1286.52 5.49545 1286.24 6.42042 1286.66 7.15985L1288.57 10.5243C1286.96 11.2796 1285.41 12.1412 1283.9 13.1027C1284.04 12.1838 1284.06 11.2436 1283.96 10.2967C1283.71 8.03273 1282.8 5.98536 1281.41 4.32218C1282.31 3.44138 1282.59 3.16688 1282.68 3.08309C1283.22 2.65656 1283.41 1.9284 1283.11 1.29225C1282.75 0.52449 1281.81 0.180824 1281.01 0.525404C1280.72 0.648185 1280.67 0.673777 1279.11 2.21022C1277.12 0.817581 1274.67 0.00167966 1272.02 0.00167966C1271.61 0.00167966 1268.17 -0.152787 1264.53 2.50087C1263.81 1.83639 1263.37 1.4193 1263.23 1.27976C1262.78 0.770052 1262.02 0.583291 1261.35 0.868765C1260.55 1.21365 1260.19 2.11516 1260.55 2.88232C1260.63 3.05476 1260.68 3.16017 1262.32 4.69692C1260.56 6.99594 1259.76 9.80011 1260.07 12.6567C1260.31 14.9222 1261.23 16.9705 1262.61 18.6343L1261.24 20.0092C1260.63 20.6173 1260.65 21.5816 1261.29 22.1629C1261.6 22.445 1261.99 22.5852 1262.39 22.5852C1262.81 22.5852 1263.23 22.4274 1263.54 22.1145L1264.91 20.7453C1268.98 23.5592 1273.27 22.8868 1273.29 22.8856C1272.51 23.9181 1271.79 24.9832 1271.12 26.0785L1267.69 24.4312C1266.9 24.0534 1265.94 24.3562 1265.55 25.1078C1265.15 25.8598 1265.47 26.7753 1266.26 27.1534L1269.63 28.7724C1267.19 33.6416 1265.81 38.9974 1265.64 44.5548H1261.85C1260.97 44.5548 1260.25 45.2366 1260.25 46.0781C1260.25 46.9196 1260.97 47.6015 1261.85 47.6015H1265.67C1265.93 52.9137 1267.32 58.044 1269.68 62.7276L1266.31 64.3476C1265.52 64.7256 1265.2 65.6412 1265.6 66.3931C1265.88 66.925 1266.44 67.2325 1267.02 67.2325C1267.27 67.2325 1267.51 67.1801 1267.74 67.0698L1271.18 65.4191C1272.9 68.2379 1274.99 70.8614 1277.43 73.221H1272.85C1268.28 73.221 1264.56 76.7747 1264.56 81.1427C1264.56 85.1558 1267.7 88.4785 1271.75 88.9928L1276.37 130.637C1276.46 131.412 1277.14 132 1277.96 132H1335.3C1336.11 132 1336.8 131.412 1336.88 130.637L1341.5 88.9928C1345.56 88.4785 1348.69 85.1558 1348.69 81.1427C1348.69 76.7747 1344.98 73.221 1340.4 73.221H1335.83C1338.28 70.8489 1340.38 68.2098 1342.11 65.3737L1345.64 67.0695C1345.87 67.1797 1346.11 67.2322 1346.35 67.2322C1346.93 67.2322 1347.5 66.9247 1347.78 66.3928C1348.17 65.6409 1347.86 64.7253 1347.07 64.3476L1343.6 62.6804C1345.95 58.0095 1347.32 52.8951 1347.59 47.6009H1351.41C1352.29 47.6009 1353 46.919 1353 46.0775C1353 45.236 1352.29 44.5548 1351.41 44.5548ZM1308.22 9.65356C1321.02 10.7973 1331.17 25.592 1331.17 43.6179C1331.17 55.8683 1326.41 67.1475 1318.71 73.221H1308.22V9.65356ZM1305.03 9.65356V73.2213H1294.55C1286.85 67.1484 1282.08 55.8693 1282.08 43.6183C1282.08 25.5926 1292.24 10.7973 1305.03 9.65356ZM1272.02 3.04836C1276.55 3.04836 1280.32 6.29917 1280.78 10.6102C1281 12.5717 1280.5 14.4993 1279.37 16.1217C1273.97 11.1836 1269.66 7.23054 1266.85 4.64177C1269.23 2.96275 1271.72 3.04836 1272.02 3.04836ZM1272 19.9059C1267.47 19.9059 1263.7 16.6548 1263.24 12.3438C1263.02 10.3878 1263.52 8.46566 1264.64 6.84635C1267.05 9.06829 1270.92 12.6137 1277.16 18.3192C1275.03 19.8858 1272.3 19.9059 1272 19.9059ZM1268.81 45.715C1268.81 33.7878 1275.57 20.1012 1291.3 12.6679C1289.71 14.0834 1288.21 15.7292 1286.84 17.5969C1281.72 24.5677 1278.89 33.8089 1278.89 43.6179C1278.89 55.3294 1283.03 66.2767 1289.89 73.221H1282.1C1273.65 66.334 1268.81 56.3403 1268.81 45.715ZM1333.86 128.953H1279.39L1274.97 89.0641H1338.29L1333.86 128.953ZM1340.4 76.268C1343.22 76.268 1345.51 78.4549 1345.51 81.143C1345.51 83.8308 1343.22 86.0177 1340.4 86.0177H1272.85C1270.04 86.0177 1267.75 83.8308 1267.75 81.143C1267.75 78.4549 1270.04 76.268 1272.85 76.268H1340.4ZM1331.15 73.2213H1323.36C1330.22 66.2767 1334.36 55.3294 1334.36 43.6183C1334.36 33.8092 1331.54 24.568 1326.41 17.5972C1325.05 15.7417 1323.57 14.1054 1321.98 12.696C1335.21 18.332 1344.45 31.0114 1344.45 45.7153C1344.45 56.3403 1339.61 66.3343 1331.15 73.2213Z" fill="#663333"/>
<g filter="url(#filter1_i_397_1663)">
<path d="M1093.1 123.167H1092.39H1072.39H1072.02L1071.91 122.816L1062.42 92.5H1061.06H1060.56V92V75.3334V74.8334H1061.06H1063.32C1065.2 74.8334 1066.68 74.5928 1067.8 74.137L1067.81 74.1346L1067.81 74.1347C1068.98 73.6733 1069.83 73.038 1070.38 72.2466L1070.38 72.2427C1070.99 71.3887 1071.37 70.3626 1071.49 69.1486L1071.49 69.1399L1071.49 69.1399C1071.67 67.6874 1071.78 66.2579 1071.82 64.8511C1071.87 63.4339 1071.89 62.0391 1071.89 60.6667C1071.89 59.2549 1071.84 57.8882 1071.76 56.5666L1071.76 56.5656C1071.67 55.1889 1071.58 53.8567 1071.49 52.569C1071.41 51.4082 1071.06 50.4363 1070.46 49.6334L1070.45 49.6223L1070.44 49.6107C1069.88 48.7777 1069.04 48.1243 1067.87 47.6654L1067.87 47.6626L1067.86 47.6596C1066.7 47.1615 1065.19 46.9 1063.32 46.9H1061.06H1060.56V46.4V29.8667V29.3667H1061.06H1063.32C1065.83 29.3667 1068.62 29.5234 1071.7 29.8356C1074.83 30.1081 1077.84 30.9698 1080.74 32.4174C1083.73 33.8451 1086.2 36.2319 1088.15 39.544C1090.17 42.8921 1091.24 47.5887 1091.42 53.5836L1093.1 123.167ZM1093.1 123.167L1092.86 122.5L1081 88.8892L1093.1 123.167ZM1034.96 122.667V123.167H1035.46H1054.39H1054.89V122.667V29.8667V29.3667H1054.39H1035.46H1034.96V29.8667V122.667Z" fill="#895159" stroke="#895159"/>
<path d="M981.7 122.667V123.167H982.2H1001.13H1001.63V122.667V29.8667V29.3667H1001.13H982.2H981.7V29.8667V122.667ZM1007.3 122.667V123.167H1007.8H1026.73H1027.23V122.667V106.133V105.633H1026.73H1007.8H1007.3V106.133V122.667ZM1007.3 83.6V84.1H1007.8H1025.4H1025.9V83.6V67.0667V66.5667H1025.4H1007.8H1007.3V67.0667V83.6ZM1007.3 46.4V46.9H1007.8H1026.73H1027.23V46.4V29.8667V29.3667H1026.73H1007.8H1007.3V29.8667V46.4Z" fill="#895159" stroke="#895159"/>
<path d="M942.071 122.794L942.168 123.167H942.554H971.488H971.988V122.667V106.133V105.633H971.488H955.246L947.714 59.3863L947.711 59.3631L947.705 59.3403L939.971 29.7403L939.874 29.3667H939.488H911.888H911.388V29.8667V46.2667V46.7667H911.888H928.512L934.191 92.728L934.195 92.7612L934.204 92.7935L942.071 122.794ZM911.388 122.667V123.167H911.888H930.154H930.677L930.654 122.644L929.054 86.911L929.053 86.8945L929.051 86.8782L925.051 50.8781L925.002 50.4334H924.554H911.888H911.388V50.9334V122.667ZM958.325 101.533L958.384 101.967H958.821H971.488H971.988V101.467V29.8667V29.3667H971.488H953.221H952.703L952.721 29.8847L954.188 70.6847L954.189 70.709L954.192 70.7332L958.325 101.533Z" fill="#895159" stroke="#895159"/>
<path d="M871.846 124.3L872.37 124.324V123.8V108.2V107.804L871.984 107.713C870.543 107.374 869.489 106.792 868.775 105.999C868.056 105.2 867.65 104.219 867.569 103.032C867.302 99.1734 867.103 94.9358 866.97 90.319C866.836 85.7018 866.77 80.9733 866.77 76.1334C866.77 71.2935 866.836 66.5873 866.97 62.0146C867.103 57.4434 867.302 53.2736 867.568 49.5046C867.672 48.2194 868.093 47.2166 868.802 46.4582C869.515 45.6954 870.559 45.1393 871.979 44.8213L872.37 44.7338V44.3334V28.7334V28.2088L871.846 28.234C863.475 28.6368 857.363 30.8111 853.635 34.8614L853.633 34.8637C849.962 38.9023 847.994 45.3544 847.637 54.1115C847.459 57.8956 847.325 62.4783 847.236 67.8585H847.236L847.236 67.8626C847.192 73.1987 847.192 78.6681 847.236 84.2707L847.236 84.2747C847.325 89.8775 847.459 94.9036 847.637 99.3528C847.95 107.671 849.874 113.856 853.501 117.805L853.504 117.807C857.19 121.77 863.348 123.897 871.846 124.3ZM878.036 123.8V124.329L878.564 124.299C886.628 123.851 892.618 121.697 896.43 117.747C900.238 113.801 902.322 107.593 902.769 99.2268L902.769 99.225C902.858 97.4405 902.925 95.1913 902.97 92.479C903.059 89.7635 903.103 86.9816 903.103 84.1334C903.103 81.2372 903.036 78.6494 902.902 76.3707L902.875 75.9001H902.403H876.403H875.903V76.4001V92.6667V93.1667H876.403H883.538C883.603 94.191 883.636 95.6002 883.636 97.4001L883.636 97.4107C883.681 99.4797 883.592 101.343 883.374 103.002L883.374 103.003C883.209 104.283 882.72 105.29 881.923 106.056C881.121 106.829 879.971 107.39 878.434 107.711L878.036 107.794V108.2V123.8ZM882.574 65.0047L882.503 65.5667H883.07H902.003H902.479L902.502 65.0911C902.592 63.257 902.614 61.2692 902.57 59.1281C902.57 56.9419 902.503 54.7777 902.369 52.6355L902.368 52.6309C901.787 44.5321 899.679 38.5076 895.964 34.6542C892.285 30.7917 886.449 28.6822 878.565 28.2342L878.036 28.2042V28.7334V44.4001V44.783L878.406 44.8828C879.738 45.2423 880.722 45.8123 881.397 46.5668C882.069 47.3178 882.468 48.2878 882.572 49.509C882.659 50.5598 882.725 52.1249 882.77 54.2107L882.77 54.2109C882.814 56.2481 882.814 58.3076 882.77 60.3894L882.77 60.3894V60.4001C882.77 62.4387 882.703 63.9694 882.574 65.0047Z" fill="#895159" stroke="#895159"/>
<path d="M818.679 122.667V123.167H819.179H838.113H838.613V122.667V29.8667V29.3667H838.113H819.179H818.679V29.8667V122.667Z" fill="#895159" stroke="#895159"/>
<path d="M786.194 123.299V108.2C787.749 107.845 788.883 107.2 789.594 106.267C790.349 105.333 790.816 104.133 790.994 102.667C791.26 100.8 791.372 98.9556 791.327 97.1334C791.327 95.2667 791.216 93.6445 790.994 92.2667C790.816 90.7112 790.26 89.3334 789.327 88.1334L786.194 123.299ZM786.194 123.299C786.186 123.3 786.178 123.3 786.169 123.301L786.194 123.8M786.194 123.299V123.8M786.194 123.8H786.694V123.773M786.194 123.8L786.694 123.773M786.694 123.773C794.655 123.313 800.377 121.211 803.86 117.467C807.46 113.645 809.483 107.6 809.927 99.3334C809.971 98.489 810.016 97.6001 810.06 96.6667C810.105 95.7334 810.127 94.8667 810.127 94.0667C810.127 93.2667 810.105 92.6223 810.06 92.1334C809.883 88.0445 809.171 84.4445 807.927 81.3334L786.694 123.773ZM785.694 123.8V124.325L786.218 124.299C794.497 123.897 800.541 121.768 804.225 117.809C807.941 113.863 809.979 107.68 810.426 99.3602L810.426 99.3597C810.471 98.5143 810.515 97.6246 810.56 96.6905C810.605 95.7505 810.627 94.8758 810.627 94.0667C810.627 93.266 810.605 92.6087 810.559 92.1C810.379 87.972 809.66 84.3188 808.392 81.1485C807.112 77.905 805.032 75.2094 802.161 73.0672C799.329 70.9205 795.498 69.3428 790.699 68.3112L781.5 66.3115L781.499 66.3113C779.294 65.8356 777.769 65.0294 776.844 63.9459C775.865 62.7537 775.292 61.5897 775.087 60.4531C774.825 58.6578 774.694 56.8401 774.694 55.0001C774.694 53.1137 774.825 51.2955 775.088 49.545C775.297 48.2911 775.752 47.2706 776.437 46.4626C777.147 45.6762 778.194 45.1183 779.628 44.8231L780.027 44.7409V44.3334V28.7334V28.2092L779.503 28.234C771.006 28.6364 764.848 30.7633 761.162 34.7251C757.489 38.6288 755.519 44.7703 755.161 53.0451H755.161L755.161 53.0489C755.116 54.2986 755.094 55.4823 755.094 56.6001C755.094 57.6731 755.116 58.9893 755.161 60.5477L755.161 60.5502C755.296 64.5492 755.947 68.0946 757.127 71.1786L757.128 71.181C758.317 74.2464 760.263 76.8301 762.953 78.9277L762.953 78.9277L762.957 78.931C765.654 80.988 769.283 82.522 773.816 83.5542L773.817 83.5545L784.479 85.9534C784.48 85.9536 784.481 85.9538 784.481 85.954C786.688 86.4736 788.131 87.319 788.92 88.424L788.926 88.4323L788.932 88.4404C789.808 89.5657 790.329 90.8563 790.497 92.3235L790.498 92.335L790.5 92.3463C790.717 93.6907 790.827 95.2851 790.827 97.1334H790.827L790.827 97.1456C790.871 98.9392 790.762 100.756 790.499 102.596L790.499 102.596L790.497 102.607C790.328 104.001 789.889 105.107 789.205 105.952L789.2 105.958L789.196 105.964C788.578 106.775 787.565 107.374 786.082 107.713L785.694 107.801V108.2V123.8ZM779.501 124.299L780.027 124.327V123.8V108.2V107.801L779.638 107.713C778.153 107.373 777.053 106.79 776.294 105.994C775.575 105.193 775.123 104.161 774.956 102.87C774.781 101.467 774.671 99.95 774.627 98.3199C774.583 96.6867 774.583 94.9864 774.627 93.2188C774.715 91.4467 774.826 89.6301 774.959 87.769L774.997 87.2334H774.46H756.727H756.315L756.236 87.638C755.919 89.2718 755.739 91.1232 755.694 93.1892C755.649 95.1967 755.649 97.2483 755.694 99.344H755.694L755.694 99.3554C756.052 107.497 757.933 113.628 761.415 117.66L761.417 117.662C764.927 121.68 771.005 123.852 779.501 124.299ZM790.627 65.0463L790.606 65.5667H791.127H809.26H809.708L809.757 65.1219C809.805 64.6969 809.849 63.6527 809.893 62.02C809.982 60.3259 810.027 58.588 810.027 56.8063C810.071 55.0362 810.072 53.7755 810.026 53.0402C809.668 44.8083 807.63 38.6888 803.82 34.7862C800.053 30.8371 794.153 28.6823 786.222 28.2342L785.694 28.2044V28.7334V44.3334V44.732L786.082 44.8208C787.57 45.161 788.672 45.7455 789.431 46.5444L789.431 46.5445L789.44 46.5536C790.184 47.2976 790.587 48.2608 790.627 49.4834L790.627 49.4834L790.628 49.4923C790.716 51.2181 790.76 52.854 790.76 54.4001V54.4072L790.761 54.4143C790.805 55.96 790.805 57.5731 790.761 59.2536L790.76 59.2536V59.2667C790.76 60.9472 790.716 62.8735 790.627 65.0463Z" fill="#895159" stroke="#895159"/>
<path d="M703.705 122.667V123.167H704.205H723.139H723.639V122.667V29.8667V29.3667H723.139H704.205H703.705V29.8667V122.667ZM729.305 122.667V123.167H729.805H748.739H749.239V122.667V106.133V105.633H748.739H729.805H729.305V106.133V122.667ZM729.305 83.6V84.1H729.805H747.405H747.905V83.6V67.0667V66.5667H747.405H729.805H729.305V67.0667V83.6ZM729.305 46.4V46.9H729.805H748.739H749.239V46.4V29.8667V29.3667H748.739H729.805H729.305V29.8667V46.4Z" fill="#895159" stroke="#895159"/>
<path d="M640.294 122.667V123.167H640.794H660.794H661.294V122.667V16V15.5H660.794H640.794H640.294V16V122.667ZM666.96 122.667V123.167H667.46H667.86C677.912 123.167 685.291 121.025 689.872 116.628C694.501 112.228 696.848 105.045 697.027 95.2098C697.16 89.0304 697.249 83.1618 697.294 77.604C697.338 72.0458 697.338 66.4875 697.294 60.9293C697.249 55.3715 697.16 49.5029 697.027 43.3234C696.848 33.5328 694.501 26.3934 689.871 22.0374C685.29 17.6409 677.912 15.5 667.86 15.5H667.46H666.96V16V33.6V34.1H667.46H667.86C670.591 34.1 672.588 34.729 673.93 35.9089L673.93 35.909L673.937 35.9146C675.27 37.0457 675.985 38.6957 676.027 40.9428L676.027 40.9475C676.161 45.6554 676.249 50.3856 676.294 55.138L676.294 55.1428C676.383 59.8507 676.427 64.5587 676.427 69.2667C676.427 73.9746 676.383 78.6826 676.294 83.3906L676.294 83.3953C676.249 88.1033 676.161 92.8335 676.027 97.586L676.027 97.5907C675.985 99.8849 675.268 101.582 673.93 102.758C672.588 103.938 670.591 104.567 667.86 104.567H667.46H666.96V105.067V122.667Z" fill="#895159" stroke="#895159"/>
<path d="M581.278 122.667V123.167H581.778H600.445H600.945V122.667V16V15.5H600.445H581.778H581.278V16V122.667Z" fill="#895159" stroke="#895159"/>
<path d="M515.532 97.2066L515.532 97.2074C515.666 106.283 517.655 113.029 521.597 117.338C525.546 121.654 531.99 123.985 540.807 124.433L541.332 124.459V123.933V107.333V106.956L540.97 106.853C539.5 106.433 538.399 105.731 537.631 104.765C536.908 103.757 536.532 102.49 536.532 100.933L536.532 100.928C536.443 91.9956 536.354 82.6851 536.266 72.9969C536.221 63.3094 536.199 53.6219 536.199 43.9344C536.243 34.2483 536.354 24.9401 536.532 16.0099L536.542 15.5H536.032H516.032H515.539L515.532 15.9934C515.354 29.3734 515.266 42.9089 515.266 56.6C515.266 70.2466 515.354 83.7822 515.532 97.2066ZM546.999 123.933V124.459L547.524 124.433C556.296 123.985 562.697 121.654 566.602 117.336C570.543 113.028 572.531 106.283 572.665 97.2083C572.888 83.7832 572.999 70.2472 572.999 56.6C572.999 42.9084 572.888 29.3723 572.665 15.9917L572.657 15.5H572.166H552.166H551.656L551.666 16.0099C551.843 24.9397 551.932 34.2475 551.932 43.9333L551.932 43.9356C551.977 53.6222 551.954 63.3088 551.866 72.9954L551.866 72.9977C551.821 82.6858 551.754 91.996 551.666 100.928V100.933C551.666 102.494 551.287 103.764 550.56 104.775L550.558 104.778C549.882 105.731 548.834 106.432 547.362 106.853L546.999 106.956V107.333V123.933Z" fill="#895159" stroke="#895159"/>
<path d="M459.959 123.88L459.806 124.5H460.445H480.445H480.836L480.93 124.12L507.597 16.1199L507.75 15.5H507.111H487.111H486.72L486.626 15.8801L459.959 123.88Z" fill="#895159" stroke="#895159"/>
<path d="M392.896 122.518L392.695 123.167H393.374H412.974H413.354L413.456 122.801L420.789 96.5344L420.802 96.4881L420.806 96.44L422.006 81.5067L422.049 80.9667H421.507H406.174H405.806L405.696 81.3183L392.896 122.518ZM395.107 15.5H394.424L394.631 16.1515L413.964 76.9515L414.075 77.3H414.441H425.583L427.276 96.444L427.28 96.4876L427.291 96.5299L434.358 122.797L434.457 123.167H434.841H454.441H455.106L454.921 122.527L436.521 59.0608L436.416 58.7H436.041H423.829L422.138 40.8861L422.134 40.842L422.122 40.7994L415.189 15.866L415.087 15.5H414.707H395.107ZM427.542 54.4942L427.5 55.0333H428.041H444.174H444.549L444.654 54.6729L455.854 16.1396L456.04 15.5H455.374H435.774H435.39L435.291 15.8708L428.624 40.8042L428.612 40.8485L428.609 40.8942L427.542 54.4942Z" fill="#895159" stroke="#895159"/>
<path d="M362.233 124.459V123.933V107.333V106.956L362.596 106.853C364.069 106.432 365.117 105.731 365.792 104.778L365.794 104.775C366.521 103.764 366.9 102.494 366.9 100.933V100.928C366.989 91.996 367.056 82.6858 367.1 72.9977L367.1 72.9954C367.189 63.3088 367.211 53.6222 367.167 43.9356L367.167 43.9333C367.167 34.2475 367.078 24.9397 366.9 16.0099L366.89 15.5H367.4H387.4H387.892L387.9 15.9917C388.122 29.3723 388.233 42.9084 388.233 56.6C388.233 70.2469 388.122 83.7826 387.9 97.2074C387.9 97.2077 387.9 97.208 387.9 97.2083L387.4 97.2C387.267 106.222 385.289 112.822 381.467 117L362.233 124.459ZM362.233 124.459L362.759 124.433C371.531 123.985 377.931 121.654 381.837 117.336L362.233 124.459ZM330.767 97.2066L330.767 97.2074C330.901 106.283 332.889 113.029 336.831 117.338C340.78 121.654 347.225 123.985 356.041 124.433L356.567 124.459V123.933V107.333V106.956L356.204 106.853C354.734 106.433 353.633 105.731 352.866 104.765C352.143 103.757 351.767 102.49 351.767 100.933L351.767 100.928C351.678 91.9956 351.589 82.6851 351.5 72.9969C351.456 63.3094 351.433 53.6219 351.433 43.9344C351.478 34.2483 351.589 24.9401 351.767 16.0099L351.777 15.5H351.267H331.267H330.773L330.767 15.9934C330.589 29.3734 330.5 42.9089 330.5 56.6C330.5 70.2466 330.589 83.7822 330.767 97.2066Z" fill="#895159" stroke="#895159"/>
</g>
<defs>
<filter id="filter0_d_397_1663" x="-10" y="103" width="1536" height="65" filterUnits="userSpaceOnUse" color-interpolation-filters="sRGB">
<feFlood flood-opacity="0" result="BackgroundImageFix"/>
<feColorMatrix in="SourceAlpha" type="matrix" values="0 0 0 0 0 0 0 0 0 0 0 0 0 0 0 0 0 0 127 0" result="hardAlpha"/>
<feOffset dy="4"/>
<feGaussianBlur stdDeviation="2"/>
<feComposite in2="hardAlpha" operator="out"/>
<feColorMatrix type="matrix" values="0 0 0 0 0.215686 0 0 0 0 0.262745 0 0 0 0 0.458824 0 0 0 1 0"/>
<feBlend mode="normal" in2="BackgroundImageFix" result="effect1_dropShadow_397_1663"/>
<feBlend mode="normal" in="SourceGraphic" in2="effect1_dropShadow_397_1663" result="shape"/>
</filter>
<filter id="filter1_i_397_1663" x="327" y="15" width="766.802" height="114" filterUnits="userSpaceOnUse" color-interpolation-filters="sRGB">
<feFlood flood-opacity="0" result="BackgroundImageFix"/>
<feBlend mode="normal" in="SourceGraphic" in2="BackgroundImageFix" result="shape"/>
<feColorMatrix in="SourceAlpha" type="matrix" values="0 0 0 0 0 0 0 0 0 0 0 0 0 0 0 0 0 0 127 0" result="hardAlpha"/>
<feOffset dx="-3" dy="5"/>
<feGaussianBlur stdDeviation="2"/>
<feComposite in2="hardAlpha" operator="arithmetic" k2="-1" k3="1"/>
<feColorMatrix type="matrix" values="0 0 0 0 0.209167 0 0 0 0 0.029109 0 0 0 0 0.029109 0 0 0 1 0"/>
<feBlend mode="normal" in2="shape" result="effect1_innerShadow_397_1663"/>
</filter>
</defs>
</svg>
