<svg width="1512" height="168" viewBox="0 0 1512 168" fill="none" xmlns="http://www.w3.org/2000/svg">
<g filter="url(#filter0_d_397_1663)">
<path d="M105.282 156.331C79.5741 156.331 55.7328 156.323 34.3024 156.323C23.1569 156.323 14.936 155.272 14.936 151.206C14.936 150.63 14.6023 145.92 14.6023 145.346C14.6023 144.773 14.936 140.2 14.936 139.625C14.936 135.559 105.291 106.447 105.291 106.447C317.767 106.262 1286.73 106.447 1430.42 106.447C1430.42 106.447 1520.78 135.559 1520.78 139.625C1520.78 140.202 1521.11 144.771 1521.1 145.346C1521.1 145.921 1520.78 150.633 1520.78 151.206C1520.78 155.272 1512.55 156.323 1501.41 156.323C1283.83 156.323 1024.32 156.644 870.667 156.648C726.956 156.64 338.825 156.382 105.282 156.331Z" fill="#FFFCF5"/>
<path fill-rule="evenodd" clip-rule="evenodd" d="M105.29 106.447C105.271 106.441 105.271 106.441 105.27 106.442L104.256 106.769C103.594 106.983 102.624 107.298 101.388 107.7C98.9177 108.504 95.3882 109.657 91.1528 111.054C82.682 113.846 71.3875 117.613 60.093 121.506C48.7986 125.399 37.5038 129.419 29.0326 132.72C24.797 134.371 21.2669 135.842 18.7955 137.027C17.5599 137.62 16.5885 138.142 15.926 138.579C15.2639 139.016 14.9086 139.369 14.9086 139.625C14.9086 139.913 14.8252 141.199 14.7417 142.486L14.7415 142.489C14.6582 143.774 14.5748 145.059 14.5748 145.346C14.5748 145.632 14.6581 146.951 14.7414 148.27L14.7417 148.275C14.8252 149.597 14.9086 150.918 14.9086 151.206C14.9086 153.241 16.9663 154.524 20.4237 155.296C23.8792 156.069 28.7278 156.332 34.3022 156.332C44.5497 156.332 55.3484 156.334 66.6389 156.336L68.1879 156.336C80.0405 156.338 92.4277 156.34 105.282 156.34C223.369 156.365 380.979 156.444 526.531 156.516C668.839 156.587 799.621 156.653 870.666 156.657C940.108 156.655 1031.16 156.588 1130.2 156.516C1250.31 156.428 1382.15 156.332 1501.41 156.332C1506.98 156.332 1511.83 156.069 1515.29 155.296C1518.74 154.524 1520.8 153.241 1520.8 151.206C1520.8 150.92 1520.88 149.598 1520.97 148.277C1521.05 146.955 1521.13 145.634 1521.13 145.346C1521.13 145.058 1521.05 143.772 1520.97 142.486L1520.96 142.402C1520.88 141.144 1520.8 139.907 1520.8 139.625C1520.8 139.369 1520.45 139.016 1519.79 138.579C1519.12 138.142 1518.15 137.62 1516.92 137.027C1514.44 135.842 1510.91 134.371 1506.68 132.72C1498.21 129.419 1486.91 125.399 1475.62 121.506C1464.32 117.613 1453.03 113.846 1444.56 111.054C1440.32 109.657 1436.79 108.504 1434.32 107.7C1433.09 107.298 1432.12 106.983 1431.45 106.769L1430.46 106.447L1430.44 106.443L1430.45 106.439H1430.42C1397.84 106.439 1322.85 106.429 1223.86 106.417C886.248 106.374 269.594 106.295 105.29 106.439L105.29 106.435L105.27 106.442L105.29 106.447ZM1223.86 106.434C886.255 106.391 269.623 106.312 105.302 106.456L104.295 106.781C103.633 106.996 102.663 107.31 101.427 107.712C98.9569 108.516 95.4274 109.669 91.1921 111.066C82.7215 113.858 71.4273 117.624 60.1332 121.517C48.839 125.41 37.5451 129.43 29.0749 132.731C24.8398 134.382 21.3109 135.852 18.841 137.037C17.6061 137.629 16.6362 138.15 15.9752 138.586C15.3137 139.023 14.9631 139.373 14.9631 139.625C14.9631 139.913 14.8797 141.2 14.7962 142.486C14.7128 143.772 14.6294 145.06 14.6294 145.346C14.6294 145.632 14.7126 146.951 14.796 148.271L14.7962 148.275C14.8797 149.596 14.9631 150.918 14.9631 151.206C14.9631 153.237 17.0159 154.513 20.4552 155.282C23.8965 156.052 28.7311 156.314 34.3022 156.314C44.5303 156.314 55.3075 156.316 66.5747 156.318L68.1879 156.319C80.0405 156.321 92.4277 156.323 105.282 156.323C223.367 156.348 380.975 156.427 526.525 156.499C668.835 156.57 799.62 156.635 870.666 156.639C940.106 156.638 1031.16 156.571 1130.2 156.499C1250.31 156.411 1382.16 156.314 1501.41 156.314C1506.98 156.314 1511.81 156.052 1515.25 155.282C1518.69 154.513 1520.75 153.237 1520.75 151.206C1520.75 150.92 1520.83 149.598 1520.91 148.277C1520.99 146.955 1521.08 145.633 1521.08 145.346C1521.08 145.059 1521 143.773 1520.91 142.486L1520.91 142.389C1520.83 141.136 1520.75 139.906 1520.75 139.625C1520.75 139.373 1520.4 139.023 1519.74 138.586C1519.08 138.15 1518.11 137.629 1516.87 137.037C1514.4 135.852 1510.87 134.382 1506.64 132.731C1498.17 129.43 1486.87 125.41 1475.58 121.517C1464.28 117.624 1452.99 113.858 1444.52 111.066C1440.28 109.669 1436.75 108.516 1434.28 107.712C1433.05 107.31 1432.08 106.996 1431.42 106.781L1430.66 106.537L1430.41 106.456C1397.83 106.456 1322.83 106.446 1223.86 106.434Z" fill="#374375" fill-opacity="0.5"/>
<path d="M10.6762 155.237C9.3352 154.393 8.68863 153.454 8.79661 152.508C8.79661 151.932 8.4453 147.22 8.44969 146.648C8.45408 146.076 8.79661 140.397 8.79661 139.821V137.728H15.7439C239.432 137.542 1364.27 136.734 1515.54 136.734H1520.76V139.822C1520.76 140.398 1521.11 146.073 1521.1 146.649C1521.1 147.226 1520.76 151.938 1520.76 152.51C1520.76 156.576 1512.1 157.625 1500.37 157.625C1271.31 157.625 1034.78 157.946 873.012 157.95C721.721 157.942 313.121 157.685 67.2603 157.633C40.1912 157.633 51.7496 157.625 29.1862 157.625C20.6931 157.623 13.838 157.075 10.6762 155.237Z" fill="#BABDE2"/>
<path fill-rule="evenodd" clip-rule="evenodd" d="M1515.54 136.743C1364.27 136.743 239.432 137.551 15.7438 137.736H8.8237V139.821C8.8237 140.109 8.73805 141.673 8.65188 143.236L8.64174 143.42C8.55902 144.92 8.47888 146.373 8.47677 146.648C8.47457 146.934 8.56129 148.255 8.64858 149.576L8.65532 149.678C8.74032 150.965 8.8237 152.227 8.8237 152.508C8.71588 153.452 9.36137 154.39 10.7001 155.234C13.8542 157.066 20.6941 157.615 29.186 157.616C39.9546 157.616 42.9511 157.618 46.0839 157.62L46.5335 157.62C49.8479 157.623 53.7256 157.625 67.2601 157.625C190.867 157.651 355.609 157.728 508.106 157.8C658.933 157.872 797.783 157.937 873.011 157.941C946.177 157.94 1034.64 157.873 1130.79 157.8L1161.45 157.777C1269.44 157.697 1385.84 157.616 1500.37 157.616C1506.23 157.616 1511.32 157.354 1514.95 156.585C1518.57 155.816 1520.73 154.54 1520.73 152.51C1520.73 152.224 1520.82 150.902 1520.9 149.581L1520.91 149.446C1520.99 148.171 1521.08 146.928 1521.08 146.649C1521.08 146.361 1520.99 144.799 1520.91 143.236L1520.9 143.097C1520.81 141.581 1520.73 140.102 1520.73 139.822V136.743H1515.54ZM1520.76 136.734V136.726H1515.54C1364.27 136.726 239.432 137.533 15.7437 137.719C15.7437 137.719 15.7438 137.719 15.7437 137.719M1520.76 136.734H1520.78V139.822C1520.78 140.1 1520.87 141.56 1520.95 143.064L1520.96 143.236C1521.05 144.798 1521.13 146.361 1521.13 146.649C1521.13 146.928 1521.05 148.175 1520.97 149.453L1520.96 149.581C1520.87 150.903 1520.78 152.224 1520.78 152.51C1520.78 154.545 1518.62 155.827 1514.98 156.599C1511.34 157.371 1506.24 157.634 1500.37 157.634C1385.84 157.634 1269.44 157.714 1161.45 157.795L1130.79 157.818C1034.64 157.89 946.177 157.957 873.011 157.959C797.784 157.955 658.937 157.889 508.113 157.818C355.614 157.746 190.869 157.668 67.2601 157.642C53.7255 157.642 49.8479 157.64 46.5334 157.638L46.0814 157.637C42.9495 157.635 39.9519 157.634 29.186 157.634C20.692 157.632 13.8218 157.084 10.652 155.242C9.30907 154.396 8.66109 153.455 8.76915 152.508C8.76912 152.227 8.68575 150.965 8.60074 149.678L8.59404 149.577C8.50677 148.255 8.42002 146.934 8.42222 146.648C8.42433 146.373 8.50446 144.92 8.58717 143.42L8.59733 143.236C8.68352 141.672 8.76915 140.109 8.76915 139.821V137.728H8.79642" fill="#374375" fill-opacity="0.5"/>
<path d="M105.281 152.983C87.5658 152.983 69.8536 152.98 52.1442 152.974C44.9415 153.132 37.7114 153.117 30.5163 152.927C26.1687 152.709 25.6856 152.407 25.488 151.039C25.1587 148.685 25.0884 146.312 25.2289 143.957C25.6708 142.612 25.7545 141.259 25.4792 139.91C25.0401 139.056 24.9698 140.811 25.3695 140.05C25.3695 140.05 24.1969 140.629 25.5978 139.927C42.2854 131.572 67.409 123.804 89.7967 116.346C97.4086 113.815 105.063 111.3 112.76 108.803L105.294 109.78C171.966 109.721 238.637 109.697 305.308 109.708C405.668 109.694 506.026 109.691 606.383 109.699C717.259 109.699 828.133 109.707 939.006 109.724C1037.45 109.734 1135.89 109.746 1234.34 109.759C1295.82 109.767 1357.3 109.774 1418.78 109.78H1430.44L1422.97 108.803C1443.86 115.535 1464.41 122.396 1484.12 129.474C1493.91 132.75 1502.72 136.309 1510.42 140.105C1511.9 140.885 1509.84 139.459 1510.47 140.179C1510.12 139.772 1510.38 139.356 1510.27 140.375C1510.12 141.88 1510.52 143.403 1510.56 144.91C1510.58 146.116 1510.46 147.323 1510.39 148.53C1510.34 149.412 1511.38 151.6 1509.68 152.363C1507.61 153.291 1500.46 152.966 1497.63 152.966H1470.91C1454.09 152.966 1437.25 152.97 1420.41 152.977C1385.62 152.988 1350.84 153.004 1316.05 153.023C1246.91 153.062 1177.77 153.109 1108.63 153.163C1006.94 153.236 905.255 153.273 803.569 153.273C697.986 153.24 592.399 153.193 486.808 153.134C371.772 153.077 256.736 153.027 141.699 152.986L105.25 152.976C91.6894 152.976 91.6675 159.673 105.25 159.673C246.656 159.704 388.061 159.764 529.466 159.852C646.809 159.911 764.155 159.957 881.504 159.992C1039.63 159.973 1197.75 159.781 1355.88 159.705C1398.47 159.686 1441.07 159.673 1483.67 159.668C1499.89 159.668 1522.85 160.586 1529.64 154.488C1533.05 151.419 1531.77 147.403 1531.58 144.177C1531.42 141.349 1532.23 138.706 1527.67 136.186C1523 133.816 1517.72 131.575 1511.86 129.488C1496.42 123.578 1479.8 117.965 1463.17 112.399C1456.73 110.243 1450.24 108.1 1443.7 105.968C1439.4 104.565 1436.23 103.192 1429.49 103.089C1420.03 102.949 1410.42 103.089 1400.95 103.089L1310.65 103.079L1032.13 103.044C917.262 103.031 802.396 103.021 687.533 103.014C578.428 103.007 469.322 103.007 360.215 103.014C282.559 103.021 204.902 103.041 127.243 103.074L109.33 103.088C106.412 103.059 103.512 103.246 100.858 103.632C98.2042 104.019 95.8673 104.595 94.0301 105.316C79.872 109.921 65.913 114.59 52.153 119.321C37.4109 124.408 21.6499 129.56 9.67873 135.367C5.65696 137.417 3.76294 139.816 4.26405 142.226C4.06204 145.436 3.75464 148.696 4.50119 151.894C5.96355 158.197 22.2208 159.672 39.3124 159.673C61.3107 159.673 83.3076 159.676 105.303 159.682C118.846 159.683 118.868 152.986 105.281 152.983Z" fill="#374375" fill-opacity="0.5"/>
<path fill-rule="evenodd" clip-rule="evenodd" d="M360.216 103.005C469.323 102.998 578.429 102.998 687.534 103.005C802.397 103.012 917.263 103.023 1032.13 103.036L1400.95 103.08C1404.1 103.08 1407.27 103.065 1410.44 103.049C1416.8 103.018 1423.18 102.987 1429.5 103.08C1435.4 103.171 1438.57 104.237 1442.15 105.441C1442.66 105.613 1443.18 105.787 1443.72 105.961C1450.26 108.093 1456.75 110.237 1463.19 112.393C1479.82 117.958 1496.44 123.572 1511.88 129.483C1517.74 131.57 1523.03 133.81 1527.69 136.181C1531.56 138.32 1531.57 140.549 1531.58 142.901C1531.58 143.322 1531.59 143.747 1531.61 144.177C1531.64 144.759 1531.71 145.367 1531.78 145.99C1531.91 147.094 1532.04 148.247 1531.99 149.391C1531.91 151.182 1531.37 152.955 1529.66 154.491C1526.27 157.544 1518.82 158.84 1510.2 159.373C1503.52 159.786 1496.13 159.741 1489.37 159.7C1487.41 159.688 1485.5 159.676 1483.67 159.676C1441.07 159.682 1398.47 159.694 1355.88 159.714C1292.33 159.744 1228.77 159.793 1165.22 159.843C1070.65 159.916 976.076 159.989 881.505 160C764.156 159.966 646.81 159.919 529.467 159.86C388.351 159.772 247.234 159.713 106.117 159.682C105.852 159.688 105.581 159.69 105.304 159.69C83.3084 159.685 61.3116 159.682 39.3132 159.682C30.7658 159.681 22.4228 159.312 16.0331 158.154C9.64137 156.996 5.20665 155.049 4.47483 151.895C3.79429 148.98 3.98944 146.012 4.18228 143.08C4.20101 142.795 4.21972 142.51 4.2376 142.226C3.73639 139.814 5.63184 137.413 9.65642 135.362C20.1058 130.293 33.4428 125.723 46.4675 121.261C48.3662 120.61 50.2583 119.962 52.1338 119.315C65.8936 114.584 79.8525 109.916 94.0105 105.31C95.8502 104.588 98.1902 104.011 100.848 103.624C103.505 103.237 106.409 103.05 109.331 103.079C109.331 103.079 109.331 103.079 109.331 103.079L127.244 103.065C204.902 103.032 282.56 103.012 360.216 103.005ZM106.717 159.665C247.634 159.696 388.551 159.755 529.467 159.843C646.81 159.902 764.156 159.948 881.505 159.983C976.074 159.972 1070.64 159.899 1165.21 159.825C1228.77 159.776 1292.32 159.727 1355.88 159.697C1398.47 159.677 1441.07 159.665 1483.67 159.659C1485.5 159.659 1487.41 159.671 1489.37 159.683C1496.13 159.724 1503.51 159.769 1510.19 159.356C1518.8 158.824 1526.22 157.53 1529.61 154.485C1531.32 152.952 1531.85 151.182 1531.93 149.391C1531.99 148.247 1531.86 147.095 1531.73 145.991C1531.66 145.368 1531.59 144.76 1531.56 144.177C1531.53 143.747 1531.53 143.321 1531.53 142.9C1531.52 140.548 1531.51 138.325 1527.65 136.19C1522.98 133.82 1517.7 131.58 1511.84 129.494C1496.4 123.584 1479.78 117.97 1463.15 112.404C1456.71 110.249 1450.22 108.105 1443.68 105.973C1443.14 105.799 1442.62 105.624 1442.11 105.453C1438.53 104.248 1435.38 103.188 1429.49 103.098C1423.18 103.004 1416.8 103.036 1410.44 103.067C1407.27 103.082 1404.1 103.098 1400.95 103.098L1032.13 103.053C917.263 103.04 802.397 103.03 687.534 103.022C578.429 103.016 469.323 103.016 360.216 103.022C282.56 103.03 204.902 103.05 127.244 103.082L109.331 103.096C106.417 103.068 103.521 103.254 100.87 103.64C98.2202 104.026 95.8867 104.601 94.0522 105.321C79.8942 109.927 65.9337 114.595 52.1739 119.326C50.2982 119.974 48.406 120.622 46.5073 121.273C33.4824 125.735 20.1493 130.304 9.70259 135.371C5.68393 137.42 3.79139 139.817 4.29211 142.226C4.27412 142.51 4.25556 142.795 4.23683 143.08C4.04398 146.013 3.8489 148.979 4.52923 151.894C5.25978 155.042 9.68484 156.984 16.0602 158.139C22.4376 159.295 30.7691 159.664 39.3132 159.665C61.0079 159.665 82.7012 159.667 104.393 159.673C101.415 159.608 99.1485 159.208 97.5932 158.632C95.8922 158.003 95.0436 157.163 95.045 156.324C95.0464 155.486 95.8977 154.646 97.5994 154.017C99.0623 153.475 101.153 153.089 103.869 152.991C86.6253 152.991 69.3843 152.988 52.146 152.983C44.9422 153.141 37.7111 153.125 30.5148 152.935C28.3418 152.827 27.1217 152.696 26.4254 152.419C26.0773 152.281 25.8613 152.107 25.7198 151.882C25.5783 151.657 25.511 151.381 25.4616 151.039C25.1322 148.685 25.062 146.312 25.2025 143.956C25.6337 142.644 25.7239 141.323 25.4718 140.006C25.4412 140.022 25.4121 140.036 25.3846 140.05L25.3972 140.051C25.3473 140.146 25.3043 140.203 25.2674 140.231C25.2581 140.237 25.2485 140.243 25.2382 140.247C25.2286 140.251 25.2138 140.255 25.1937 140.255C25.1732 140.255 25.1597 140.25 25.1518 140.247C25.1434 140.243 25.1367 140.237 25.131 140.232C25.1219 140.222 25.1141 140.21 25.1075 140.195L24.982 140.256L24.9466 140.273L24.9365 140.278L24.93 140.28C24.9299 140.28 24.9322 140.28 24.93 140.28C24.9291 140.28 24.9242 140.282 24.923 140.282C24.9201 140.282 24.9112 140.283 24.9053 140.282C24.8975 140.282 24.887 140.278 24.8845 140.276L24.8838 140.273L24.8859 140.27L24.8904 140.268L24.9016 140.262L24.9488 140.237C24.982 140.22 25.0301 140.196 25.0963 140.163C25.0922 140.148 25.0889 140.132 25.0864 140.115C25.0787 140.064 25.0777 140.004 25.0834 139.945C25.089 139.886 25.1013 139.827 25.1199 139.779C25.1293 139.755 25.1402 139.733 25.1529 139.715C25.1655 139.698 25.1802 139.684 25.1981 139.674C25.207 139.669 25.2185 139.665 25.2339 139.663C25.2515 139.66 25.2701 139.66 25.2865 139.664C25.3013 139.666 25.3138 139.671 25.3248 139.677C25.3361 139.682 25.3472 139.69 25.3583 139.699C25.4026 139.735 25.4521 139.802 25.507 139.909C25.5099 139.923 25.5131 139.938 25.5159 139.952C25.5353 139.942 25.5552 139.932 25.5756 139.922C39.772 132.814 60.073 126.131 79.5996 119.704C83.0286 118.575 86.4338 117.454 89.7778 116.34C96.3874 114.142 103.029 111.957 109.703 109.784C108.237 109.786 106.772 109.787 105.306 109.788L105.285 109.771L112.739 108.796L112.78 108.809C111.797 109.128 110.814 109.447 109.832 109.767C174.991 109.711 240.15 109.689 305.309 109.7C405.669 109.686 506.027 109.682 606.384 109.69C717.26 109.69 828.134 109.698 939.007 109.715C1037.45 109.725 1135.9 109.737 1234.34 109.75C1295.82 109.758 1357.3 109.765 1418.78 109.771H1425.93C1424.94 109.45 1423.95 109.129 1422.95 108.809L1422.96 108.811L1422.98 108.795L1430.44 109.77V109.788H1426.06C1445.89 116.203 1465.39 122.737 1484.14 129.468C1493.86 132.72 1502.61 136.252 1510.27 140.017C1510.28 139.962 1510.28 139.916 1510.27 139.878C1510.25 139.807 1510.25 139.755 1510.25 139.741L1510.25 139.738C1510.26 139.738 1510.26 139.736 1510.26 139.735C1510.26 139.734 1510.27 139.732 1510.27 139.731C1510.28 139.73 1510.29 139.73 1510.29 139.731C1510.3 139.732 1510.31 139.735 1510.31 139.735C1510.31 139.736 1510.31 139.738 1510.31 139.739C1510.31 139.742 1510.32 139.748 1510.32 139.757C1510.32 139.776 1510.33 139.808 1510.33 139.857C1510.33 139.863 1510.33 139.87 1510.33 139.877C1510.33 139.882 1510.33 139.888 1510.33 139.894C1510.34 139.915 1510.35 139.938 1510.36 139.962C1510.37 139.961 1510.38 139.96 1510.39 139.961C1510.4 139.961 1510.41 139.964 1510.43 139.967C1510.45 139.973 1510.48 139.983 1510.5 139.995C1510.53 140.008 1510.56 140.023 1510.6 140.041C1510.66 140.076 1510.73 140.119 1510.79 140.161C1510.86 140.203 1510.91 140.246 1510.95 140.279C1510.97 140.295 1510.98 140.31 1510.99 140.321C1510.99 140.327 1511 140.332 1511 140.336C1511 140.34 1511 140.345 1510.99 140.349C1510.99 140.352 1510.98 140.354 1510.97 140.355C1510.96 140.355 1510.96 140.355 1510.95 140.355C1510.95 140.355 1510.95 140.355 1510.94 140.354C1510.93 140.353 1510.92 140.35 1510.9 140.346C1510.88 140.339 1510.85 140.327 1510.8 140.308C1510.73 140.276 1510.62 140.226 1510.48 140.152M1510.48 140.152C1510.46 140.135 1510.45 140.118 1510.44 140.101C1510.63 140.199 1510.76 140.261 1510.85 140.298C1510.89 140.316 1510.92 140.328 1510.94 140.334C1510.94 140.333 1510.94 140.334 1510.94 140.334C1510.94 140.332 1510.94 140.332 1510.94 140.33L1510.94 140.325C1510.93 140.315 1510.92 140.301 1510.9 140.285C1510.86 140.252 1510.81 140.211 1510.74 140.168C1510.68 140.126 1510.61 140.084 1510.55 140.049C1510.53 140.04 1510.51 140.031 1510.5 140.023C1510.48 140.016 1510.47 140.01 1510.46 140.005C1510.44 139.997 1510.42 139.99 1510.41 139.985C1510.4 139.983 1510.4 139.982 1510.39 139.98L1510.38 139.978C1510.38 139.979 1510.38 139.981 1510.38 139.983C1510.38 139.987 1510.38 139.992 1510.38 139.998C1510.39 140.03 1510.41 140.064 1510.44 140.098C1510.44 140.099 1510.44 140.1 1510.44 140.101M1510.33 140.015C1510.33 140.026 1510.34 140.039 1510.35 140.054C1510.34 140.05 1510.33 140.047 1510.33 140.043C1510.33 140.034 1510.33 140.025 1510.33 140.015ZM1510.33 140.075C1510.32 140.157 1510.32 140.256 1510.3 140.375C1510.21 141.283 1510.32 142.196 1510.43 143.109C1510.5 143.71 1510.57 144.311 1510.58 144.909C1510.6 145.836 1510.54 146.763 1510.47 147.69C1510.45 147.97 1510.43 148.25 1510.42 148.53C1510.4 148.75 1510.46 149.052 1510.52 149.393C1510.59 149.734 1510.66 150.114 1510.68 150.491C1510.7 150.867 1510.67 151.241 1510.53 151.567C1510.39 151.894 1510.13 152.176 1509.71 152.368C1509.18 152.602 1508.34 152.757 1507.33 152.857C1506.32 152.957 1505.15 153.004 1503.94 153.021C1502.74 153.039 1501.52 153.027 1500.41 153.011C1500.1 153.006 1499.8 153.001 1499.51 152.997C1498.78 152.985 1498.13 152.975 1497.63 152.975H1470.92C1454.09 152.975 1437.25 152.978 1420.41 152.986C1385.62 152.997 1350.84 153.012 1316.05 153.032C1246.91 153.071 1177.77 153.117 1108.63 153.171C1006.94 153.245 905.256 153.282 803.57 153.282C697.987 153.248 592.4 153.202 486.808 153.142C371.772 153.085 256.736 153.036 141.7 152.994L106.195 152.985C109.147 153.053 111.396 153.453 112.943 154.025C114.645 154.655 115.494 155.495 115.494 156.334C115.494 157.173 114.645 158.012 112.945 158.641C111.491 159.181 109.414 159.565 106.717 159.665M104.503 152.991C104.763 152.991 105.022 152.991 105.282 152.991C108.671 152.992 111.21 153.41 112.901 154.036C114.593 154.663 115.44 155.498 115.44 156.334C115.44 157.169 114.593 158.004 112.904 158.63C111.353 159.205 109.091 159.604 106.116 159.665C105.827 159.665 105.539 159.665 105.251 159.665C101.863 159.665 99.3254 159.247 97.6346 158.621C95.9433 157.995 95.0982 157.16 95.0995 156.324C95.1009 155.489 95.9488 154.654 97.6408 154.028C99.2052 153.449 101.492 153.048 104.503 152.991ZM104.501 152.974C104.747 152.969 104.997 152.967 105.251 152.967L141.7 152.977C256.736 153.019 371.772 153.068 486.808 153.125C592.4 153.184 697.987 153.231 803.57 153.264C905.255 153.264 1006.94 153.228 1108.63 153.154C1177.77 153.1 1246.91 153.054 1316.05 153.014C1350.84 152.995 1385.62 152.98 1420.41 152.968C1437.25 152.961 1454.09 152.957 1470.92 152.957H1497.63C1498.14 152.957 1498.78 152.968 1499.51 152.98C1499.8 152.984 1500.11 152.989 1500.42 152.994C1501.52 153.01 1502.74 153.021 1503.94 153.004C1505.14 152.987 1506.31 152.94 1507.32 152.841C1508.32 152.741 1509.15 152.588 1509.66 152.358C1510.08 152.169 1510.33 151.891 1510.48 151.565C1510.62 151.24 1510.65 150.867 1510.63 150.491C1510.61 150.124 1510.54 149.752 1510.47 149.417L1510.47 149.394C1510.41 149.053 1510.35 148.751 1510.36 148.53C1510.38 148.25 1510.4 147.969 1510.42 147.689C1510.48 146.762 1510.55 145.836 1510.53 144.909C1510.52 144.312 1510.44 143.712 1510.37 143.111C1510.26 142.198 1510.16 141.283 1510.25 140.374C1510.26 140.243 1510.27 140.135 1510.27 140.048C1502.6 136.276 1493.84 132.738 1484.1 129.48C1465.34 122.745 1445.83 116.206 1425.99 109.788H1418.78C1357.3 109.783 1295.82 109.776 1234.34 109.767C1135.9 109.754 1037.45 109.743 939.007 109.732C828.134 109.716 717.26 109.707 606.384 109.707C506.027 109.7 405.669 109.703 305.309 109.717C240.132 109.706 174.956 109.728 109.779 109.784C103.093 111.961 96.439 114.15 89.8173 116.352C86.4728 117.466 83.0673 118.587 79.638 119.716C60.1113 126.144 39.8149 132.825 25.6217 139.931C25.5868 139.949 25.5535 139.966 25.5217 139.981C25.7795 141.307 25.6911 142.636 25.257 143.957C25.1165 146.312 25.1868 148.685 25.5161 151.039C25.5655 151.38 25.6327 151.655 25.7733 151.879C25.9138 152.102 26.1273 152.273 26.4681 152.409C27.1496 152.68 28.3465 152.809 30.5203 152.918C37.7138 153.108 44.9422 153.124 52.1432 152.966C69.5925 152.971 87.0465 152.974 104.501 152.974ZM1510.33 140.075C1510.34 140.084 1510.36 140.093 1510.38 140.102C1510.4 140.125 1510.42 140.152 1510.45 140.182L1510.47 140.179L1510.5 140.177C1510.49 140.169 1510.49 140.16 1510.48 140.152M1426.01 109.771H1430.3L1423.09 108.827C1424.06 109.141 1425.04 109.456 1426.01 109.771ZM109.756 109.767C110.719 109.453 111.684 109.14 112.648 108.827L105.434 109.771C106.874 109.769 108.315 109.768 109.756 109.767ZM25.4661 139.977C25.3332 140.044 25.2276 140.097 25.1451 140.138C25.1435 140.131 25.1421 140.123 25.1409 140.115C25.1332 140.064 25.1323 140.004 25.1379 139.945C25.1435 139.886 25.1557 139.828 25.1741 139.781C25.1833 139.757 25.194 139.736 25.2061 139.719C25.2184 139.702 25.2317 139.69 25.2448 139.683C25.2512 139.68 25.2558 139.679 25.2576 139.678C25.2571 139.678 25.2579 139.678 25.2576 139.678C25.2614 139.679 25.2694 139.681 25.2785 139.686C25.2873 139.69 25.297 139.697 25.3075 139.705C25.3494 139.739 25.3981 139.804 25.453 139.911M25.3204 140.09L25.2319 140.134L25.1539 140.172C25.1616 140.195 25.1714 140.214 25.1832 140.226C25.1882 140.232 25.1931 140.235 25.1971 140.237C25.2016 140.239 25.2034 140.237 25.1971 140.237C25.1908 140.239 25.1912 140.237 25.1971 140.237C25.2028 140.235 25.2087 140.23 25.2171 140.224C25.2458 140.202 25.2803 140.16 25.3204 140.09Z" fill="#374375" fill-opacity="0.5"/>
<path d="M21.5367 140.869C50.4765 140.844 79.4178 140.82 108.36 140.798L237.342 140.698L398.558 140.58L579.837 140.45L771.143 140.318L961.777 140.188L1141.05 140.072L1298.26 139.976C1339.76 139.951 1381.24 139.928 1422.73 139.907C1449.82 139.893 1476.91 139.883 1504 139.875H1515.82C1529.38 139.875 1529.41 133.178 1515.82 133.178C1492.93 133.178 1470.04 133.185 1447.16 133.2C1408.91 133.217 1370.67 133.237 1332.42 133.26C1282.13 133.288 1231.84 133.318 1181.55 133.351L1006.64 133.462L817.772 133.589L625.649 133.722L440.962 133.853L274.402 133.976L136.668 134.079C103.82 134.104 70.97 134.131 38.1189 134.159L21.5367 134.173C7.97587 134.184 7.94952 140.881 21.5367 140.87V140.869Z" fill="#374375" fill-opacity="0.5"/>
<path fill-rule="evenodd" clip-rule="evenodd" d="M1447.16 133.191C1470.04 133.176 1492.93 133.169 1515.82 133.169C1519.22 133.169 1521.78 133.589 1523.48 134.218C1525.18 134.848 1526.03 135.687 1526.03 136.526C1526.03 137.365 1525.17 138.205 1523.47 138.834C1521.77 139.464 1519.22 139.884 1515.82 139.884H1504C1476.91 139.891 1449.82 139.902 1422.73 139.916C1381.24 139.936 1339.76 139.959 1298.26 139.984L108.36 140.806C79.4267 140.828 50.4945 140.852 21.5638 140.877V144.206L21.5366 140.879C18.1321 140.881 15.5784 140.464 13.8767 139.835C12.1756 139.207 11.3271 138.369 11.3287 137.53C11.3304 136.691 12.1822 135.851 13.8841 135.22C15.5866 134.588 18.1385 134.167 21.5365 134.164L38.1187 134.15C70.9698 134.122 103.819 134.095 136.668 134.07L1181.55 133.342C1231.84 133.309 1282.13 133.279 1332.42 133.251C1370.67 133.228 1408.91 133.208 1447.16 133.191ZM21.5093 140.861V137.711L21.5365 140.86C50.4763 140.835 79.4175 140.811 108.36 140.789L1298.26 139.967C1339.75 139.942 1381.24 139.919 1422.73 139.899C1449.82 139.885 1476.91 139.874 1504 139.866H1515.82C1519.2 139.866 1521.74 139.449 1523.43 138.823C1525.12 138.197 1525.97 137.362 1525.97 136.526C1525.97 135.691 1525.13 134.856 1523.44 134.23C1521.75 133.604 1519.21 133.186 1515.82 133.186C1492.93 133.186 1470.04 133.194 1447.16 133.209C1408.91 133.225 1370.67 133.245 1332.42 133.269C1282.13 133.296 1231.84 133.327 1181.55 133.359L136.668 134.088C103.82 134.113 70.9699 134.139 38.1188 134.167L21.5366 134.181C18.1542 134.184 15.6175 134.604 13.9256 135.231C12.2332 135.858 11.3849 136.694 11.3833 137.53C11.3816 138.365 12.2266 139.199 13.9181 139.824C15.6046 140.447 18.1338 140.862 21.5093 140.861Z" fill="#374375" fill-opacity="0.5"/>
</g>
<path d="M1290.78 10.6102C1290.32 6.29914 1286.55 3.04833 1282.02 3.04833C1281.72 3.04833 1279.23 2.96303 1276.85 4.64175C1279.66 7.23051 1283.97 11.1836 1289.37 16.1216C1290.5 14.4993 1291 12.5713 1290.78 10.6102Z" fill="#CCFF66"/>
<path d="M1341.17 43.6182C1341.17 25.5922 1331.02 10.7972 1318.22 9.65381V73.2216H1328.71C1336.41 67.1477 1341.17 55.8686 1341.17 43.6182Z" fill="#669933"/>
<path d="M1274.64 6.84595C1273.52 8.46556 1273.03 10.3874 1273.24 12.3434C1273.7 16.6544 1277.47 19.9055 1282 19.9055C1282.3 19.9055 1285.04 19.8857 1287.16 18.3188C1280.92 12.6133 1277.05 9.06789 1274.64 6.84595Z" fill="#669933"/>
<path d="M1304.55 73.2213H1315.03V9.65356C1302.24 10.7973 1292.08 25.5923 1292.08 43.618C1292.08 55.8693 1296.85 67.1484 1304.55 73.2213Z" fill="#669933"/>
<path d="M1292.1 73.2213H1299.89C1293.03 66.277 1288.89 55.3296 1288.89 43.6182C1288.89 33.8091 1291.72 24.5679 1296.84 17.5971C1298.21 15.7295 1299.71 14.084 1301.3 12.6682C1285.57 20.1015 1278.81 33.7878 1278.81 45.7152C1278.81 56.3402 1283.65 66.334 1292.1 73.2213Z" fill="#CCFF66"/>
<path d="M1331.98 12.696C1333.57 14.1054 1335.05 15.7418 1336.41 17.5972C1341.54 24.568 1344.36 33.8092 1344.36 43.6183C1344.36 55.3295 1340.22 66.2768 1333.36 73.2214H1341.15C1349.61 66.3344 1354.45 56.3406 1354.45 45.7154C1354.45 31.0115 1345.21 18.3321 1331.98 12.696Z" fill="#CCFF66"/>
<path d="M1277.75 81.1431C1277.75 83.8308 1280.04 86.0177 1282.85 86.0177H1350.4C1353.22 86.0177 1355.51 83.8308 1355.51 81.1431C1355.51 78.455 1353.22 76.2681 1350.4 76.2681H1282.85C1280.04 76.2681 1277.75 78.4547 1277.75 81.1431Z" fill="#CC6633"/>
<path d="M1289.39 128.953H1343.86L1348.29 89.0645H1284.97L1289.39 128.953Z" fill="#DFAEA1"/>
<path d="M1361.41 44.5548H1357.62C1357.44 38.9322 1356.03 33.6029 1353.62 28.8105L1357.07 27.1534C1357.86 26.7753 1358.17 25.8598 1357.78 25.1078C1357.38 24.3562 1356.42 24.0534 1355.64 24.4312L1352.13 26.1169C1348.07 19.4368 1342.01 14.0036 1334.73 10.5685L1336.67 7.15985C1337.09 6.42042 1336.81 5.49545 1336.03 5.0939C1335.26 4.69113 1334.29 4.96533 1333.87 5.70446L1331.81 9.32361C1327.11 7.52667 1321.99 6.53346 1316.63 6.53346C1316.63 6.53346 1316.63 6.53346 1316.63 6.53346H1316.63H1316.63C1316.63 6.53346 1316.62 6.53346 1316.62 6.53346C1309.76 6.53346 1306.03 7.56415 1301.49 9.2843L1299.46 5.70446C1299.04 4.96533 1298.07 4.69113 1297.29 5.0939C1296.52 5.49545 1296.24 6.42042 1296.66 7.15985L1298.57 10.5243C1296.96 11.2796 1295.41 12.1412 1293.9 13.1027C1294.04 12.1838 1294.06 11.2436 1293.96 10.2967C1293.71 8.03273 1292.8 5.98536 1291.41 4.32218C1292.31 3.44138 1292.59 3.16688 1292.68 3.08309C1293.22 2.65656 1293.41 1.9284 1293.11 1.29225C1292.75 0.52449 1291.81 0.180824 1291.01 0.525404C1290.72 0.648185 1290.67 0.673777 1289.11 2.21022C1287.12 0.817581 1284.67 0.00167966 1282.02 0.00167966C1281.61 0.00167966 1278.17 -0.152787 1274.53 2.50087C1273.81 1.83639 1273.37 1.4193 1273.23 1.27976C1272.78 0.770052 1272.02 0.583291 1271.35 0.868765C1270.55 1.21365 1270.19 2.11516 1270.55 2.88232C1270.63 3.05476 1270.68 3.16017 1272.32 4.69692C1270.56 6.99594 1269.76 9.80011 1270.07 12.6567C1270.31 14.9222 1271.23 16.9705 1272.61 18.6343L1271.24 20.0092C1270.63 20.6173 1270.65 21.5816 1271.29 22.1629C1271.6 22.445 1271.99 22.5852 1272.39 22.5852C1272.81 22.5852 1273.23 22.4274 1273.54 22.1145L1274.91 20.7453C1278.98 23.5592 1283.27 22.8868 1283.29 22.8856C1282.51 23.9181 1281.79 24.9832 1281.12 26.0785L1277.69 24.4312C1276.9 24.0534 1275.94 24.3562 1275.55 25.1078C1275.15 25.8598 1275.47 26.7753 1276.26 27.1534L1279.63 28.7724C1277.19 33.6416 1275.81 38.9974 1275.64 44.5548H1271.85C1270.97 44.5548 1270.25 45.2366 1270.25 46.0781C1270.25 46.9196 1270.97 47.6015 1271.85 47.6015H1275.67C1275.93 52.9137 1277.32 58.044 1279.68 62.7276L1276.31 64.3476C1275.52 64.7256 1275.2 65.6412 1275.6 66.3931C1275.88 66.925 1276.44 67.2325 1277.02 67.2325C1277.27 67.2325 1277.51 67.1801 1277.74 67.0698L1281.18 65.4191C1282.9 68.2379 1284.99 70.8614 1287.43 73.221H1282.85C1278.28 73.221 1274.56 76.7747 1274.56 81.1427C1274.56 85.1558 1277.7 88.4785 1281.75 88.9928L1286.37 130.637C1286.46 131.412 1287.14 132 1287.96 132H1345.3C1346.11 132 1346.8 131.412 1346.88 130.637L1351.5 88.9928C1355.56 88.4785 1358.69 85.1558 1358.69 81.1427C1358.69 76.7747 1354.98 73.221 1350.4 73.221H1345.83C1348.28 70.8489 1350.38 68.2098 1352.11 65.3737L1355.64 67.0695C1355.87 67.1797 1356.11 67.2322 1356.35 67.2322C1356.93 67.2322 1357.5 66.9247 1357.78 66.3928C1358.17 65.6409 1357.86 64.7253 1357.07 64.3476L1353.6 62.6804C1355.95 58.0095 1357.32 52.8951 1357.59 47.6009H1361.41C1362.29 47.6009 1363 46.919 1363 46.0775C1363 45.236 1362.29 44.5548 1361.41 44.5548ZM1318.22 9.65356C1331.02 10.7973 1341.17 25.592 1341.17 43.6179C1341.17 55.8683 1336.41 67.1475 1328.71 73.221H1318.22V9.65356ZM1315.03 9.65356V73.2213H1304.55C1296.85 67.1484 1292.08 55.8693 1292.08 43.6183C1292.08 25.5926 1302.24 10.7973 1315.03 9.65356ZM1282.02 3.04836C1286.55 3.04836 1290.32 6.29917 1290.78 10.6102C1291 12.5717 1290.5 14.4993 1289.37 16.1217C1283.97 11.1836 1279.66 7.23054 1276.85 4.64177C1279.23 2.96275 1281.72 3.04836 1282.02 3.04836ZM1282 19.9059C1277.47 19.9059 1273.7 16.6548 1273.24 12.3438C1273.02 10.3878 1273.52 8.46566 1274.64 6.84635C1277.05 9.06829 1280.92 12.6137 1287.16 18.3192C1285.03 19.8858 1282.3 19.9059 1282 19.9059ZM1278.81 45.715C1278.81 33.7878 1285.57 20.1012 1301.3 12.6679C1299.71 14.0834 1298.21 15.7292 1296.84 17.5969C1291.72 24.5677 1288.89 33.8089 1288.89 43.6179C1288.89 55.3294 1293.03 66.2767 1299.89 73.221H1292.1C1283.65 66.334 1278.81 56.3403 1278.81 45.715ZM1343.86 128.953H1289.39L1284.97 89.064H1348.29L1343.86 128.953ZM1350.4 76.268C1353.22 76.268 1355.51 78.4549 1355.51 81.143C1355.51 83.8308 1353.22 86.0177 1350.4 86.0177H1282.85C1280.04 86.0177 1277.75 83.8308 1277.75 81.143C1277.75 78.4549 1280.04 76.268 1282.85 76.268H1350.4ZM1341.15 73.2213H1333.36C1340.22 66.2767 1344.36 55.3294 1344.36 43.6183C1344.36 33.8092 1341.54 24.568 1336.41 17.5972C1335.05 15.7417 1333.57 14.1054 1331.98 12.696C1345.21 18.332 1354.45 31.0114 1354.45 45.7153C1354.45 56.3403 1349.61 66.3343 1341.15 73.2213Z" fill="#663333"/>
<g filter="url(#filter1_i_397_1663)">
<path d="M1045.46 122.667V29.8667H1064.39V122.667H1045.46ZM1102.39 122.667H1082.39L1072.79 92H1071.06V75.3334H1073.32C1075.23 75.3334 1076.79 75.0889 1077.99 74.6C1079.23 74.1111 1080.17 73.4223 1080.79 72.5334C1081.46 71.6 1081.86 70.4889 1081.99 69.2C1082.17 67.7334 1082.28 66.2889 1082.32 64.8667C1082.37 63.4445 1082.39 62.0445 1082.39 60.6667C1082.39 59.2445 1082.34 57.8667 1082.26 56.5334C1082.17 55.1556 1082.08 53.8223 1081.99 52.5334C1081.9 51.2889 1081.52 50.2223 1080.86 49.3334C1080.23 48.4 1079.3 47.6889 1078.06 47.2C1076.81 46.6667 1075.23 46.4 1073.32 46.4H1071.06V29.8667H1073.32C1075.81 29.8667 1078.59 30.0223 1081.66 30.3334C1084.72 30.6 1087.68 31.4445 1090.52 32.8667C1093.41 34.2445 1095.81 36.5556 1097.72 39.8C1099.68 43.0445 1100.74 47.6445 1100.92 53.6C1100.97 54.8445 1100.99 55.9556 1100.99 56.9334C1101.03 57.8667 1101.06 58.8445 1101.06 59.8667C1101.06 60.8445 1101.06 62 1101.06 63.3334C1101.06 64.6667 1101.01 66.3111 1100.92 68.2667C1100.74 73.9111 1099.63 78.3334 1097.59 81.5334C1095.59 84.6889 1089.3 87.4 1086.5 89L1102.39 122.667Z" fill="#895159"/>
<path d="M992.2 122.667V29.8667H1011.13V122.667H992.2ZM1017.8 122.667V106.133H1036.73V122.667H1017.8ZM1017.8 83.6V67.0667H1035.4V83.6H1017.8ZM1017.8 46.4V29.8667H1036.73V46.4H1017.8Z" fill="#895159"/>
<path d="M952.554 122.667L944.688 92.6667L938.954 46.2667H921.888V29.8667H949.488L957.221 59.4667L964.821 106.133H981.488V122.667H952.554ZM921.888 122.667V50.9334H934.554L938.554 86.9334L940.154 122.667H921.888ZM968.821 101.467L964.688 70.6667L963.221 29.8667H981.488V101.467H968.821Z" fill="#895159"/>
<path d="M881.87 123.8C873.425 123.4 867.425 121.289 863.87 117.467C860.359 113.645 858.447 107.6 858.136 99.3334C857.959 94.889 857.825 89.8667 857.736 84.2667C857.692 78.6667 857.692 73.2001 857.736 67.8667C857.825 62.489 857.959 57.9112 858.136 54.1334C858.492 45.4223 860.448 39.1112 864.003 35.2001C867.603 31.289 873.559 29.1334 881.87 28.7334V44.3334C878.892 45.0001 877.292 46.7112 877.07 49.4667C876.803 53.2445 876.603 57.4223 876.47 62.0001C876.336 66.5778 876.27 71.289 876.27 76.1334C876.27 80.9778 876.336 85.7112 876.47 90.3334C876.603 94.9556 876.803 99.2001 877.07 103.067C877.159 104.356 877.603 105.445 878.403 106.333C879.203 107.222 880.359 107.845 881.87 108.2V123.8ZM888.536 123.8V108.2C891.736 107.533 893.514 105.822 893.87 103.067C894.092 101.378 894.181 99.489 894.136 97.4001C894.136 95.3112 894.092 93.7334 894.003 92.6667H886.403V76.4001H912.403C912.536 78.6667 912.603 81.2445 912.603 84.1334C912.603 86.9778 912.559 89.7556 912.47 92.4667C912.425 95.1778 912.359 97.4223 912.27 99.2001C911.825 107.511 909.759 113.578 906.07 117.4C902.381 121.222 896.536 123.356 888.536 123.8ZM893.07 65.0667C893.203 64.0001 893.27 62.4445 893.27 60.4001C893.314 58.3112 893.314 56.2445 893.27 54.2001C893.225 52.1112 893.159 50.5334 893.07 49.4667C892.848 46.8445 891.336 45.1556 888.536 44.4001V28.7334C896.359 29.1778 902.048 31.2667 905.603 35.0001C909.203 38.7334 911.292 44.6223 911.87 52.6667C912.003 54.8001 912.07 56.9556 912.07 59.1334C912.114 61.2667 912.092 63.2445 912.003 65.0667H893.07Z" fill="#895159"/>
<path d="M829.179 122.667V29.8667H848.113V122.667H829.179Z" fill="#895159"/>
<path d="M796.194 123.8V108.2C797.749 107.845 798.883 107.2 799.594 106.267C800.349 105.333 800.816 104.133 800.994 102.667C801.26 100.8 801.372 98.9556 801.327 97.1334C801.327 95.2667 801.216 93.6445 800.994 92.2667C800.816 90.7112 800.26 89.3334 799.327 88.1334C798.438 86.889 796.86 86.0001 794.594 85.4667L783.927 83.0667C779.438 82.0445 775.883 80.5334 773.26 78.5334C770.638 76.489 768.749 73.9778 767.594 71.0001C766.438 67.9778 765.794 64.489 765.66 60.5334C765.616 58.9778 765.594 57.6667 765.594 56.6001C765.594 55.489 765.616 54.3112 765.66 53.0667C766.016 44.8445 767.971 38.8445 771.527 35.0667C775.083 31.2445 781.083 29.1334 789.527 28.7334V44.3334C788.016 44.6445 786.86 45.2445 786.06 46.1334C785.305 47.0223 784.816 48.1334 784.594 49.4667C784.327 51.2445 784.194 53.0889 784.194 55.0001C784.194 56.8667 784.327 58.7112 784.594 60.5334C784.816 61.7778 785.438 63.0223 786.46 64.2667C787.483 65.4667 789.127 66.3112 791.394 66.8001L800.594 68.8001C805.349 69.8223 809.105 71.3778 811.86 73.4667C814.66 75.5556 816.683 78.1778 817.927 81.3334C819.171 84.4445 819.883 88.0445 820.06 92.1334C820.105 92.6223 820.127 93.2667 820.127 94.0667C820.127 94.8667 820.105 95.7334 820.06 96.6667C820.016 97.6001 819.971 98.489 819.927 99.3334C819.483 107.6 817.46 113.645 813.86 117.467C810.305 121.289 804.416 123.4 796.194 123.8ZM789.527 123.8C781.083 123.356 775.171 121.2 771.794 117.333C768.416 113.422 766.549 107.422 766.194 99.3334C766.149 97.2445 766.149 95.2001 766.194 93.2001C766.238 91.1556 766.416 89.3334 766.727 87.7334H784.46C784.327 89.6001 784.216 91.4223 784.127 93.2001C784.083 94.9778 784.083 96.689 784.127 98.3334C784.171 99.9778 784.283 101.511 784.46 102.933C784.638 104.311 785.127 105.445 785.927 106.333C786.771 107.222 787.971 107.845 789.527 108.2V123.8ZM801.127 65.0667C801.216 62.8889 801.26 60.9556 801.26 59.2667C801.305 57.5778 801.305 55.9556 801.26 54.4001C801.26 52.8445 801.216 51.2001 801.127 49.4667C801.083 48.1334 800.638 47.0445 799.794 46.2001C798.949 45.3112 797.749 44.689 796.194 44.3334V28.7334C804.06 29.1778 809.816 31.3112 813.46 35.1334C817.149 38.9112 819.171 44.8889 819.527 53.0667C819.571 53.7778 819.571 55.0223 819.527 56.8001C819.527 58.5778 819.483 60.3112 819.394 62.0001C819.349 63.6445 819.305 64.6667 819.26 65.0667H801.127Z" fill="#895159"/>
<path d="M714.205 122.667V29.8667H733.139V122.667H714.205ZM739.805 122.667V106.133H758.739V122.667H739.805ZM739.805 83.6V67.0667H757.405V83.6H739.805ZM739.805 46.4V29.8667H758.739V46.4H739.805Z" fill="#895159"/>
<path d="M650.794 122.667V16H670.794V122.667H650.794ZM677.46 122.667V105.067H677.86C680.66 105.067 682.794 104.422 684.26 103.133C685.727 101.844 686.483 100 686.527 97.6C686.66 92.8444 686.749 88.1111 686.794 83.4C686.883 78.6889 686.927 73.9778 686.927 69.2667C686.927 64.5555 686.883 59.8444 686.794 55.1333C686.749 50.3778 686.66 45.6444 686.527 40.9333C686.483 38.5778 685.727 36.7778 684.26 35.5333C682.794 34.2444 680.66 33.6 677.86 33.6H677.46V16H677.86C687.86 16 695.083 18.1333 699.527 22.4C704.016 26.6222 706.349 33.6 706.527 43.3333C706.66 49.5111 706.749 55.3778 706.794 60.9333C706.838 66.4889 706.838 72.0444 706.794 77.6C706.749 83.1556 706.66 89.0222 706.527 95.2C706.349 104.978 704.016 112 699.527 116.267C695.083 120.533 687.86 122.667 677.86 122.667H677.46Z" fill="#895159"/>
<path d="M591.778 122.667V16H610.445V122.667H591.778Z" fill="#895159"/>
<path d="M526.032 97.2C525.854 83.7778 525.766 70.2444 525.766 56.6C525.766 42.9111 525.854 29.3778 526.032 16H546.032C545.854 24.9333 545.743 34.2444 545.699 43.9333C545.699 53.6222 545.721 63.3111 545.766 73C545.854 82.6889 545.943 92 546.032 100.933C546.032 102.578 546.432 103.956 547.232 105.067C548.077 106.133 549.277 106.889 550.832 107.333V123.933C542.077 123.489 535.788 121.178 531.966 117C528.143 112.822 526.166 106.222 526.032 97.2ZM557.499 123.933V107.333C559.054 106.889 560.21 106.133 560.966 105.067C561.766 103.956 562.166 102.578 562.166 100.933C562.254 92 562.321 82.6889 562.366 73C562.454 63.3111 562.477 53.6222 562.432 43.9333C562.432 34.2444 562.343 24.9333 562.166 16H582.166C582.388 29.3778 582.499 42.9111 582.499 56.6C582.499 70.2444 582.388 83.7778 582.166 97.2C582.032 106.222 580.054 112.822 576.232 117C572.454 121.178 566.21 123.489 557.499 123.933Z" fill="#895159"/>
<path d="M470.445 124L497.111 16H517.111L490.445 124H470.445Z" fill="#895159"/>
<path d="M403.374 122.667L416.174 81.4667H431.507L430.307 96.4L422.974 122.667H403.374ZM405.107 16H424.707L431.641 40.9333L433.374 59.2H446.041L464.441 122.667H444.841L437.774 96.4L436.041 76.8H424.441L405.107 16ZM438.041 54.5333L439.107 40.9333L445.774 16H465.374L454.174 54.5333H438.041Z" fill="#895159"/>
<path d="M341.267 97.2C341.089 83.7778 341 70.2444 341 56.6C341 42.9111 341.089 29.3778 341.267 16H361.267C361.089 24.9333 360.978 34.2444 360.933 43.9333C360.933 53.6222 360.956 63.3111 361 73C361.089 82.6889 361.178 92 361.267 100.933C361.267 102.578 361.667 103.956 362.467 105.067C363.311 106.133 364.511 106.889 366.067 107.333V123.933C357.311 123.489 351.022 121.178 347.2 117C343.378 112.822 341.4 106.222 341.267 97.2ZM372.733 123.933V107.333C374.289 106.889 375.444 106.133 376.2 105.067C377 103.956 377.4 102.578 377.4 100.933C377.489 92 377.556 82.6889 377.6 73C377.689 63.3111 377.711 53.6222 377.667 43.9333C377.667 34.2444 377.578 24.9333 377.4 16H397.4C397.622 29.3778 397.733 42.9111 397.733 56.6C397.733 70.2444 397.622 83.7778 397.4 97.2C397.267 106.222 395.289 112.822 391.467 117C387.689 121.178 381.444 123.489 372.733 123.933Z" fill="#895159"/>
</g>
<defs>
<filter id="filter0_d_397_1663" x="0" y="103" width="1536" height="65" filterUnits="userSpaceOnUse" color-interpolation-filters="sRGB">
<feFlood flood-opacity="0" result="BackgroundImageFix"/>
<feColorMatrix in="SourceAlpha" type="matrix" values="0 0 0 0 0 0 0 0 0 0 0 0 0 0 0 0 0 0 127 0" result="hardAlpha"/>
<feOffset dy="4"/>
<feGaussianBlur stdDeviation="2"/>
<feComposite in2="hardAlpha" operator="out"/>
<feColorMatrix type="matrix" values="0 0 0 0 0.215686 0 0 0 0 0.262745 0 0 0 0 0.458824 0 0 0 1 0"/>
<feBlend mode="normal" in2="BackgroundImageFix" result="effect1_dropShadow_397_1663"/>
<feBlend mode="normal" in="SourceGraphic" in2="effect1_dropShadow_397_1663" result="shape"/>
</filter>
<filter id="filter1_i_397_1663" x="338" y="16" width="764.389" height="112" filterUnits="userSpaceOnUse" color-interpolation-filters="sRGB">
<feFlood flood-opacity="0" result="BackgroundImageFix"/>
<feBlend mode="normal" in="SourceGraphic" in2="BackgroundImageFix" result="shape"/>
<feColorMatrix in="SourceAlpha" type="matrix" values="0 0 0 0 0 0 0 0 0 0 0 0 0 0 0 0 0 0 127 0" result="hardAlpha"/>
<feOffset dx="-3" dy="5"/>
<feGaussianBlur stdDeviation="2"/>
<feComposite in2="hardAlpha" operator="arithmetic" k2="-1" k3="1"/>
<feColorMatrix type="matrix" values="0 0 0 0 0.209167 0 0 0 0 0.029109 0 0 0 0 0.029109 0 0 0 1 0"/>
<feBlend mode="normal" in2="shape" result="effect1_innerShadow_397_1663"/>
</filter>
</defs>
</svg>
